<svg version="1.1" xmlns="http://www.w3.org/2000/svg" width="2752" height="1536">
<path d="M0 0 C0.86110382 -0.00040283 1.72220764 -0.00080566 2.60940552 -0.0012207 C17.32421062 0.03831736 31.11454668 1.33394813 45.3125 5.4375 C46.33359863 5.73221191 47.35469727 6.02692383 48.40673828 6.33056641 C94.24117793 19.95127842 132.0178037 49.40462531 155.22436523 91.49389648 C164.36677543 108.58586401 170.27037296 126.39978651 174.125 145.375 C174.33205566 146.39263428 174.53911133 147.41026855 174.75244141 148.45874023 C178.49321615 167.86066079 178.37947591 187.94974822 175.3125 207.4375 C175.11043945 208.73469971 175.11043945 208.73469971 174.90429688 210.05810547 C172.13072736 226.96667372 166.6652151 242.66471654 160.71484375 258.64892578 C159.02519352 263.19604733 157.40539459 267.76722198 155.78759766 272.34033203 C151.51099691 284.42294153 147.1386825 296.47157312 142.76394653 308.5189209 C142.08931512 310.37763451 141.41538239 312.23660187 140.74215698 314.0958252 C136.72047644 325.2010527 132.62984327 336.27588297 128.43359375 347.31640625 C127.23949789 350.47694229 126.04668193 353.63795837 124.85427856 356.7991333 C124.07997088 358.84036657 123.29948282 360.87926672 122.51266479 362.91571045 C121.41792139 365.74955915 120.34378459 368.59045877 119.2734375 371.43359375 C118.94206284 372.27426895 118.61068817 373.11494415 118.26927185 373.98109436 C116.54746888 378.4995916 116.54746888 378.4995916 116.95141602 383.2097168 C117.40057373 383.94488525 117.84973145 384.68005371 118.3125 385.4375 C118.75279541 386.19724121 119.19309082 386.95698242 119.64672852 387.73974609 C120.13584717 388.51398926 120.62496582 389.28823242 121.12890625 390.0859375 C144.24622131 428.04685462 151.67510344 477.86749821 145.3125 521.4375 C145.11914062 522.81808594 145.11914062 522.81808594 144.921875 524.2265625 C141.24103296 550.06062051 133.51533836 573.39316971 121.3125 596.4375 C120.76980469 597.46488281 120.22710938 598.49226562 119.66796875 599.55078125 C112.07714158 613.19949483 102.11627704 625.23415226 91.3125 636.4375 C90.43722656 637.38753906 89.56195312 638.33757813 88.66015625 639.31640625 C74.93266763 653.95432913 57.95978432 665.09505756 40.3125 674.4375 C39.70229004 674.7665332 39.09208008 675.09556641 38.46337891 675.43457031 C-2.15534968 697.02584466 -55.54689334 703.55700631 -100.59863281 694.83447266 C-102.50290326 694.47258115 -104.41930178 694.17606097 -106.3359375 693.88671875 C-138.68380442 688.54386882 -169.33489401 672.87094363 -194.6875 652.4375 C-195.49598389 651.7892627 -195.49598389 651.7892627 -196.32080078 651.12792969 C-216.91159874 634.48404344 -232.19322321 614.67695309 -244.6875 591.4375 C-245.05472168 590.75526367 -245.42194336 590.07302734 -245.80029297 589.37011719 C-256.22424963 569.59936237 -262.44162049 548.02249813 -265.34521484 525.93652344 C-265.63265331 523.83793562 -265.98987902 521.74907149 -266.36328125 519.6640625 C-269.62198983 500.64384506 -268.95531976 479.44297933 -265.6875 460.4375 C-265.53684082 459.54998047 -265.38618164 458.66246094 -265.23095703 457.74804688 C-256.06123917 405.63656669 -229.38790356 358.59993918 -185.72216797 327.83056641 C-148.39754262 302.27569333 -104.19937894 289.95375481 -59.1875 290.0625 C-58.36766632 290.06271149 -57.54783264 290.06292297 -56.70315552 290.06314087 C-42.0700915 290.10051304 -28.03234021 291.43325451 -13.6875 294.4375 C-12.77307129 294.61941895 -11.85864258 294.80133789 -10.91650391 294.98876953 C12.05692753 299.62154477 34.36892746 308.03797502 54.3125 320.4375 C54.47857758 319.85887711 54.64465515 319.28025421 54.81576538 318.68409729 C56.85343048 311.72601453 59.21093029 304.91107466 61.6640625 298.08984375 C62.08239349 296.92030655 62.50072449 295.75076935 62.93173218 294.54579163 C64.26460012 290.82133418 65.60100663 287.09815781 66.9375 283.375 C67.81142732 280.93432692 68.68512701 278.49357232 69.55859375 276.05273438 C72.96551282 266.53725143 76.37523575 257.02284055 79.81396484 247.51879883 C84.97515937 233.24885278 89.9591341 218.9786117 94.3125 204.4375 C94.52165039 203.75187988 94.73080078 203.06625977 94.94628906 202.35986328 C102.29088757 177.51943021 95.98747536 151.33799164 84.625 128.875 C72.65706579 107.90767922 54.52868697 94.09131485 32.3125 85.4375 C31.07306641 84.91349609 31.07306641 84.91349609 29.80859375 84.37890625 C8.66761879 76.4055495 -16.61911649 78.96996697 -37.0625 87.6875 C-65.46984883 100.59993129 -81.58063857 123.89201716 -92.293396 152.31414795 C-94.66232225 158.63877802 -96.8876429 164.92933597 -98.6875 171.4375 C-99.69167969 171.59605469 -100.69585938 171.75460937 -101.73046875 171.91796875 C-117.41285254 174.53202068 -131.05927258 178.87105538 -141.46875 191.59375 C-143.51728623 194.69281762 -144.57182047 197.90451482 -145.6875 201.4375 C-143.83318359 202.03498047 -143.83318359 202.03498047 -141.94140625 202.64453125 C-136.08682724 204.59605759 -130.36219057 206.85546152 -124.625 209.125 C-123.56861328 209.54072266 -122.51222656 209.95644531 -121.42382812 210.38476562 C-118.84422453 211.40026568 -116.26547839 212.41788285 -113.6875 213.4375 C-114.70317707 219.02372386 -116.55242376 224.2191405 -118.4375 229.5625 C-118.77265625 230.56410156 -119.1078125 231.56570313 -119.453125 232.59765625 C-119.7934375 233.55800781 -120.13375 234.51835938 -120.484375 235.5078125 C-120.78698242 236.38195801 -121.08958984 237.25610352 -121.40136719 238.15673828 C-123.09656236 241.16291013 -124.51753906 242.08802762 -127.6875 243.4375 C-132.57371797 243.87199335 -136.38466433 243.15598212 -140.99609375 241.57421875 C-142.73536133 240.98543945 -142.73536133 240.98543945 -144.50976562 240.38476562 C-145.70279297 239.96904297 -146.89582031 239.55332031 -148.125 239.125 C-149.90874023 238.51881836 -149.90874023 238.51881836 -151.72851562 237.90039062 C-156.44291678 236.29053126 -161.14679389 234.66445807 -165.80078125 232.88671875 C-168.95712773 231.68153791 -172.14694204 230.61685283 -175.359375 229.5703125 C-176.85017578 229.07724609 -176.85017578 229.07724609 -178.37109375 228.57421875 C-180.42716434 227.89584642 -182.48716945 227.22929251 -184.55078125 226.57421875 C-190.96355137 224.42548091 -194.56440481 222.68369037 -197.6875 216.4375 C-197.33128497 209.2277077 -195.43283227 203.36881253 -192.8125 196.6875 C-191.91062545 194.32154788 -191.01189719 191.95459242 -190.1171875 189.5859375 C-189.86332275 188.91599762 -189.60945801 188.24605774 -189.34790039 187.55581665 C-185.06282624 176.19607234 -181.0256681 164.74412381 -176.9375 153.3125 C-176.11353326 151.0120123 -175.28947874 148.71155604 -174.46533203 146.41113281 C-173.66952104 144.188178 -172.87378396 141.96519673 -172.078125 139.7421875 C-171.69358658 138.66858475 -171.30904816 137.59498199 -170.91285706 136.48884583 C-169.23747689 131.80432573 -167.57014389 127.11783566 -165.94458008 122.41577148 C-163.26960182 114.68396372 -160.46329415 107.11544588 -156.875 99.75 C-156.44832031 98.86699219 -156.02164062 97.98398437 -155.58203125 97.07421875 C-147.4212404 80.51119353 -136.33989921 65.83674222 -123.6875 52.4375 C-122.965625 51.65117187 -122.24375 50.86484375 -121.5 50.0546875 C-97.32094945 24.65034723 -64.56187785 9.5360064 -30.6875 2.4375 C-29.80457275 2.24696045 -28.92164551 2.0564209 -28.01196289 1.86010742 C-18.71325206 0.06516688 -9.43704155 -0.00452871 0 0 Z " fill="#FFFFFF" transform="translate(1582.6875,290.5625)"/>
<path d="M0 0 C0.69881287 0.00093658 1.39762573 0.00187317 2.11761475 0.00283813 C22.94878604 0.0629309 42.6112224 1.91449597 62.8125 7.1875 C64.0603125 7.49558594 65.308125 7.80367187 66.59375 8.12109375 C90.60530929 14.43254333 114.27647248 25.88253727 133.8125 41.1875 C134.67359375 41.83976563 135.5346875 42.49203125 136.421875 43.1640625 C156.36962385 58.60133311 172.22816446 77.3660027 184.8125 99.1875 C185.46863281 100.32316406 186.12476563 101.45882812 186.80078125 102.62890625 C195.53304304 118.15410469 201.79980028 134.85368455 205.8125 152.1875 C206.04098633 153.12335938 206.26947266 154.05921875 206.50488281 155.0234375 C213.33279197 183.77641897 213.60597503 216.19161366 207.8125 245.1875 C207.64621094 246.05455566 207.47992187 246.92161133 207.30859375 247.81494141 C197.46356742 297.72375542 167.9399714 342.72082047 125.8125 371.1875 C79.67445954 401.83983578 21.64442054 414.45415752 -33.1875 405.1875 C-33.96528809 405.05859375 -34.74307617 404.9296875 -35.54443359 404.796875 C-86.1424727 396.14524116 -135.21564378 369.27604126 -165.95458984 327.39306641 C-184.73607614 300.8549868 -197.71614802 270.40168087 -202.1875 238.1875 C-202.33558105 237.15189941 -202.48366211 236.11629883 -202.63623047 235.04931641 C-206.34412468 208.4953657 -206.00755878 183.37776452 -200.1875 157.1875 C-199.90828907 155.83996072 -199.62965844 154.49230108 -199.3515625 153.14453125 C-193.17980422 124.1701427 -179.59170974 97.28540081 -161.1875 74.1875 C-160.77951172 73.67123047 -160.37152344 73.15496094 -159.95117188 72.62304688 C-137.5395194 44.46306217 -105.83970954 24.36553228 -72.1875 12.1875 C-71.50445801 11.93758301 -70.82141602 11.68766602 -70.11767578 11.43017578 C-47.56920912 3.3357228 -23.87847396 -0.04150619 0 0 Z " fill="#FFFFFF" transform="translate(880.1875,580.8125)"/>
<path d="M0 0 C0.70993607 -0.00861557 1.41987213 -0.01723114 2.15132141 -0.02610779 C4.47764469 -0.04864767 6.80275141 -0.04205164 9.12915039 -0.03295898 C10.75908258 -0.03820012 12.38901173 -0.04447839 14.01893616 -0.05174255 C17.4274833 -0.06212475 20.8356124 -0.05761729 24.24414062 -0.04296875 C28.59649494 -0.02578827 32.94752811 -0.04927731 37.29973507 -0.08445835 C40.66370775 -0.10649658 44.02736744 -0.10497541 47.39138985 -0.09669304 C48.99524954 -0.09587694 50.59913301 -0.10267467 52.20292473 -0.11746407 C67.18637903 -0.23446387 67.18637903 -0.23446387 72.98658752 3.7782135 C78.93663658 10.50430252 79.1161709 16.25480422 79.05828857 24.95420837 C79.06578983 26.20567282 79.07329108 27.45713726 79.08101964 28.74652487 C79.1012384 32.20831568 79.09673709 35.66969573 79.08811212 39.13151848 C79.0831614 42.86903677 79.10125945 46.60645266 79.11653137 50.34393311 C79.13983282 56.81541743 79.14859239 63.28678974 79.14742279 69.75831413 C79.14575286 79.11497758 79.16609532 88.47149179 79.19177809 97.82811541 C79.23285213 113.00926368 79.25617024 128.19038508 79.26831055 143.37158203 C79.28014046 158.117051 79.30033994 172.86246941 79.33178711 187.60791016 C79.33469126 188.97170204 79.33469126 188.97170204 79.33765408 190.36304527 C79.34741873 194.92429286 79.35734782 199.48554008 79.36735868 204.04678714 C79.45017142 241.87565032 79.50416307 279.70451126 79.53930664 317.53344727 C81.45567972 315.30644344 83.37086852 313.07843933 85.28540039 310.84985352 C85.82370483 310.22453735 86.36200928 309.59922119 86.91662598 308.95495605 C90.53941037 304.73551026 94.04601227 300.44140583 97.49243164 296.07641602 C99.89024695 293.09745082 102.36761102 290.19018993 104.85180664 287.28344727 C108.6748928 282.80489939 112.36773011 278.24843998 115.97680664 273.59594727 C120.23110426 268.11698537 124.65798663 262.81964038 129.19702148 257.57495117 C132.96962413 253.21383723 136.63629565 248.77709054 140.26977539 244.29907227 C142.78030459 241.2397699 145.34443106 238.23031795 147.91430664 235.22094727 C151.69728634 230.78498064 155.3446364 226.26743774 158.91430664 221.65844727 C163.36982335 215.91317572 168.05074069 210.40249286 172.83911133 204.93286133 C176.75442474 200.45721683 180.55059904 195.90115408 184.29321289 191.27954102 C187.3176671 187.581817 190.41506842 183.94813073 193.51538086 180.31396484 C196.35829799 176.96920929 199.09692652 173.56427446 201.78930664 170.09594727 C205.83340808 164.999385 210.35119703 159.93038371 216.53930664 157.53344727 C219.47485636 157.33191469 222.31588954 157.23970276 225.25170898 157.24291992 C226.13023026 157.2362027 227.00875153 157.22948547 227.91389465 157.2225647 C230.81773537 157.2035689 233.72134516 157.19965971 236.62524414 157.19750977 C238.64539688 157.19108297 240.66554869 157.1843547 242.68569946 157.17733765 C246.92077797 157.16536095 251.15577489 157.16165723 255.39086914 157.1628418 C260.81379113 157.16304501 266.23618921 157.13574169 271.65898705 157.10129738 C275.83176062 157.07904412 280.00440781 157.07500378 284.17723465 157.07606125 C286.17629426 157.07370297 288.17535723 157.06486668 290.17435837 157.04939651 C292.97264899 157.02976845 295.76980579 157.03556206 298.56811523 157.04760742 C299.39117661 157.03636841 300.21423798 157.02512939 301.0622406 157.0135498 C306.33657271 157.07115046 309.35543828 158.03049928 313.53930664 161.53344727 C315.18949047 164.83381492 315.14407973 167.97886255 314.53930664 171.53344727 C311.1519393 179.207483 304.26631056 185.59791978 298.77368164 191.83422852 C296.10597199 194.86832222 293.51901243 197.95530252 290.97680664 201.09594727 C287.56793676 205.30543246 284.07531596 209.43105698 280.53930664 213.53344727 C276.98473172 217.65809027 273.47138366 221.8055263 270.03930664 226.03344727 C265.65217762 231.43420899 261.12707252 236.70812427 256.59008789 241.98266602 C250.34503343 249.2437573 244.14299514 256.53898155 238.10180664 263.97094727 C234.64656208 268.21737484 231.11224088 272.3863315 227.53930664 276.53344727 C222.43973578 282.45459782 217.45944772 288.46197518 212.53930664 294.53344727 C207.76056629 300.41431152 202.94452883 306.25784776 198.03930664 312.03344727 C190.37084565 321.06448053 182.9181658 330.26463507 175.53930664 339.53344727 C177.33772234 343.70871647 180.11747792 347.12881558 182.85180664 350.72094727 C183.38016113 351.42002197 183.90851562 352.11909668 184.45288086 352.83935547 C186.14416862 355.07393399 187.84087924 357.30429149 189.53930664 359.53344727 C190.09183105 360.25918945 190.64435547 360.98493164 191.21362305 361.73266602 C198.29179119 371.02289201 205.41320084 380.27997219 212.53930664 389.53344727 C214.20625956 391.69989378 215.87278078 393.86667223 217.53930664 396.03344727 C218.37263211 397.11678665 219.20596544 398.20011999 220.03930664 399.28344727 C225.03930664 405.78344727 225.03930664 405.78344727 226.28833008 407.40722656 C227.12485574 408.49467728 227.96144467 409.58207933 228.7980957 410.66943359 C230.83309952 413.31438514 232.86687197 415.96025838 234.89868164 418.60766602 C239.69305759 424.85132228 244.51341752 431.07382793 249.35180664 437.28344727 C255.63625605 445.35099807 261.85576602 453.46662005 268.05932617 461.59643555 C271.87184203 466.58629052 275.70782844 471.55815094 279.53930664 476.53344727 C281.20625956 478.69989378 282.87278078 480.86667223 284.53930664 483.03344727 C285.37263211 484.11678665 286.20596544 485.20011999 287.03930664 486.28344727 C288.70597331 488.45011393 290.37263997 490.6167806 292.03930664 492.78344727 C292.45148437 493.31921387 292.86366211 493.85498047 293.28833008 494.40698242 C294.12517014 495.49500516 294.96175702 496.58322268 295.7980957 497.67163086 C297.82581303 500.30986914 299.85815085 502.94414394 301.89868164 505.57250977 C303.963844 508.23832392 306.0138632 510.9144148 308.0559082 513.59790039 C309.14471267 515.01857877 310.24159491 516.43307588 311.34301758 517.84399414 C313.29954535 520.35347511 315.23294705 522.87956417 317.16430664 525.40844727 C317.79304688 526.20524902 318.42178711 527.00205078 319.06958008 527.82299805 C321.87680976 531.53817404 323.44240538 533.72755174 324.00805664 538.43188477 C323.47522208 541.95747342 322.82384952 543.79199582 320.53930664 546.53344727 C315.47532128 549.73224392 311.34982921 549.9739625 305.55566406 549.95336914 C304.67191605 549.96183868 303.78816803 549.97030823 302.87763977 549.97903442 C299.96653709 550.00236416 297.05596435 550.0034274 294.14477539 550.00219727 C292.11224661 550.0093022 290.07971982 550.01700169 288.04719543 550.02526855 C283.78954493 550.03870483 279.53207982 550.04028635 275.27441406 550.03442383 C269.83376947 550.02853426 264.39401924 550.05909293 258.95354748 550.09954071 C254.75575517 550.12546646 250.55817665 550.12829058 246.36031532 550.12464905 C244.35535755 550.1263363 242.35038948 550.13594061 240.34551048 550.15379333 C237.53345354 550.17607544 234.72318673 550.16623398 231.91113281 550.14868164 C230.68340652 550.16857651 230.68340652 550.16857651 229.43087769 550.18887329 C221.17680272 550.0699251 214.54167806 546.05434504 208.53930664 540.53344727 C207.12647557 538.83045703 205.77545575 537.07503255 204.47680664 535.28344727 C203.68544321 534.20379785 202.89376008 533.12438271 202.10180664 532.04516602 C201.68543945 531.47330566 201.26907227 530.90144531 200.84008789 530.31225586 C198.57899003 527.22022151 196.27652986 524.15929998 193.97680664 521.09594727 C193.2310437 520.10026733 193.2310437 520.10026733 192.47021484 519.08447266 C188.2349507 513.43767366 183.95107235 507.82869166 179.66430664 502.22094727 C174.55787241 495.53799751 169.51000647 488.81794416 164.53930664 482.03344727 C158.97523211 474.43965545 153.30270295 466.93496097 147.58374023 459.45727539 C142.90890182 453.34184891 138.27459475 447.19765989 133.66430664 441.03344727 C128.90865091 434.67794017 124.1189905 428.35397453 119.26586914 422.07250977 C110.68507916 410.95513521 102.16993997 399.78214654 93.77758789 388.52172852 C91.97407007 386.11389059 90.15722338 383.71796589 88.33227539 381.32641602 C87.49937988 380.22970581 87.49937988 380.22970581 86.6496582 379.11083984 C85.5525173 377.66639909 84.45172437 376.22472345 83.34692383 374.78613281 C82.60490723 373.80640503 82.60490723 373.80640503 81.84790039 372.80688477 C81.40244873 372.22342285 80.95699707 371.63996094 80.49804688 371.03881836 C79.53930664 369.53344727 79.53930664 369.53344727 79.53930664 367.53344727 C78.87930664 367.53344727 78.21930664 367.53344727 77.53930664 367.53344727 C77.54299381 368.41435846 77.54668098 369.29526966 77.55047989 370.20287514 C77.63880962 391.63541928 77.70500591 413.06793205 77.74655533 434.50061989 C77.76718229 444.86530722 77.7953055 455.22987306 77.84106445 465.59448242 C77.88092805 474.62807177 77.90673848 483.66157314 77.91566062 492.69524801 C77.92087616 497.47873219 77.93313744 502.26196467 77.96222687 507.04536819 C77.98938839 511.5482568 77.99775014 516.05079015 77.99173737 520.5537529 C77.99283727 522.20573609 78.00078688 523.85773123 78.01612854 525.50964355 C78.0360688 527.76757557 78.03123222 530.02417124 78.02032471 532.28213501 C78.02401188 533.5449914 78.02769905 534.80784779 78.03149796 536.10897255 C77.26735938 541.42554999 74.79851413 544.47132302 70.76196289 547.87609863 C66.89770157 549.86341211 64.31146976 550.04056478 59.97680664 550.05102539 C58.87804199 550.06153931 58.87804199 550.06153931 57.75708008 550.07226562 C55.35076282 550.08978124 52.94563456 550.07824681 50.53930664 550.06469727 C48.85831478 550.06739405 47.17732444 550.07127803 45.49633789 550.07629395 C41.97925921 550.08218024 38.46258784 550.07365435 34.94555664 550.05493164 C30.44628475 550.03214228 25.94796737 550.04527007 21.44873047 550.0692215 C17.97933817 550.08370318 14.5101707 550.0790627 11.04077148 550.06871033 C9.38224168 550.06604957 7.7236912 550.06928983 6.06518555 550.07862854 C3.74351243 550.08883373 1.42336653 550.07324005 -0.89819336 550.05102539 C-2.87625977 550.04625183 -2.87625977 550.04625183 -4.89428711 550.04138184 C-10.07939019 549.30290929 -14.12943254 546.56602616 -17.46069336 542.53344727 C-18.75597023 538.64761664 -18.60207497 534.96930612 -18.59491444 530.9194746 C-18.59726667 530.02466097 -18.5996189 529.12984734 -18.60204241 528.20791814 C-18.60874794 525.18199101 -18.60827372 522.15610667 -18.60786438 519.13017273 C-18.61116203 516.94983966 -18.61488738 514.7695072 -18.61900586 512.58917552 C-18.62904505 506.57610379 -18.63274572 500.56304204 -18.63539517 494.54996312 C-18.63929247 488.07335364 -18.6488711 481.59675212 -18.65760803 475.12014771 C-18.67673482 460.2096184 -18.68663024 445.29908788 -18.69506871 430.38854928 C-18.69927357 423.02307255 -18.70449574 415.65759664 -18.70975324 408.29212061 C-18.72764317 383.08768915 -18.74264043 357.88325747 -18.75007343 332.67882061 C-18.75054819 331.09624322 -18.75102408 329.51366583 -18.75150109 327.93108844 C-18.75173747 327.14626087 -18.75197385 326.36143331 -18.75221739 325.55282309 C-18.7534186 321.57639378 -18.75463405 317.59996446 -18.75585938 313.62353516 C-18.75609952 312.83439658 -18.75633967 312.04525801 -18.7565871 311.23220615 C-18.76448301 285.63671461 -18.78792097 260.04126937 -18.82041532 234.44579805 C-18.85469426 207.39533053 -18.87442272 180.34489012 -18.87771767 153.29440051 C-18.87813523 150.32632592 -18.87861479 147.35825135 -18.87914085 144.39017677 C-18.87926405 143.65933421 -18.87938724 142.92849164 -18.87951416 142.17550233 C-18.88184847 130.40235096 -18.89752115 118.62925326 -18.9179827 106.85612104 C-18.93821395 95.02809413 -18.94339672 83.20013744 -18.93421207 71.37209638 C-18.92965167 64.96129755 -18.93165445 58.55067343 -18.95097351 52.1398983 C-18.96849368 46.27561358 -18.96769855 40.41163247 -18.95207622 34.54734502 C-18.94968314 32.42149716 -18.95411085 30.29562889 -18.96590487 28.1698124 C-18.98090869 25.28781604 -18.97143111 22.40691158 -18.95567799 19.52494335 C-18.96590019 18.69286424 -18.9761224 17.86078512 -18.98665437 17.00349149 C-18.92324205 11.7154073 -17.92318883 8.75663466 -14.46069336 4.53344727 C-10.12042181 0.76174048 -5.6853351 0.02764155 0 0 Z " fill="#FFFFFF" transform="translate(2193.460693359375,430.466552734375)"/>
<path d="M0 0 C1.85431641 0.29197266 1.85431641 0.29197266 3.74609375 0.58984375 C33.85563468 5.63296805 59.38262055 17.58993164 82 38 C82.79921875 38.71542969 83.5984375 39.43085937 84.421875 40.16796875 C108.60605295 63.0228745 121.52542941 97.34446688 127.25 129.4375 C127.40114258 130.28094971 127.55228516 131.12439941 127.70800781 131.9934082 C130.5916726 149.50857982 131.29838287 167.04297351 131.2746582 184.75952148 C131.27901884 186.94990205 131.28420642 189.1402811 131.29014587 191.33065796 C131.30338699 197.20774657 131.30413248 203.08477032 131.30158257 208.96187091 C131.30050484 213.88331422 131.30541544 218.80474482 131.310188 223.72618538 C131.32122677 235.32763935 131.32174939 246.92906091 131.31567383 258.53051758 C131.30960819 270.48864009 131.32202331 282.44662962 131.3432439 294.40472931 C131.36084254 304.7015595 131.36686488 314.99835239 131.36360615 325.29519707 C131.36179388 331.43309701 131.36442612 337.5709131 131.37832069 343.70879936 C131.39086966 349.46525953 131.38898278 355.22153576 131.37590981 360.97799301 C131.37353989 363.08955382 131.37629352 365.2011275 131.38453293 367.31267357 C131.39496449 370.19327786 131.38692917 373.07326043 131.3742218 375.95384216 C131.38159609 376.78972207 131.38897037 377.62560198 131.39656812 378.48681158 C131.35094563 383.39812614 130.69428865 386.7340962 128 391 C122.76540593 395.96615335 118.80507252 396.12384599 111.75634766 396.17700195 C111.03388351 396.18357315 110.31141937 396.19014435 109.56706238 396.19691467 C107.18272793 396.21658163 104.7984562 396.22829403 102.4140625 396.23828125 C101.18963503 396.24439454 101.18963503 396.24439454 99.94047165 396.25063133 C95.62177537 396.27146158 91.30311059 396.28577775 86.984375 396.29516602 C82.52999065 396.30623824 78.07610476 396.34065587 73.62189674 396.38033772 C70.19030847 396.40650537 66.75883915 396.41485784 63.32715988 396.41844749 C61.68534342 396.42331124 60.04353219 396.43491927 58.40181351 396.45348549 C56.10162197 396.47788655 53.80272328 396.47691113 51.50244141 396.4699707 C49.54197372 396.47877007 49.54197372 396.47877007 47.54190063 396.48774719 C42.57493915 395.80375807 39.46698195 393.66932428 36.1875 389.9375 C33.6415489 385.78357978 33.85796196 381.77833015 33.86869812 377.07629395 C33.86552455 375.85145743 33.86552455 375.85145743 33.86228687 374.60187674 C33.85627746 371.85501386 33.85728776 369.1081968 33.8581543 366.36132812 C33.85512294 364.39486615 33.85160155 362.42840487 33.84762573 360.46194458 C33.83972663 356.21733013 33.83458765 351.97272413 33.83133507 347.72810364 C33.8254154 340.99103238 33.80885979 334.25401372 33.78999329 327.51696777 C33.78365494 325.20661167 33.77732932 322.89625553 33.77101612 320.58589935 C33.76785031 319.42833476 33.7646845 318.27077017 33.76142275 317.07812786 C33.71946013 301.3955195 33.68645515 285.71293409 33.67407227 270.03027344 C33.66563539 259.4538182 33.64292903 248.87749192 33.6047166 238.30110121 C33.58512387 232.71501029 33.57249424 227.12911142 33.57755089 221.54298401 C34.30721061 163.10853387 34.30721061 163.10853387 9 112 C8.23300781 111.02417969 7.46601563 110.04835938 6.67578125 109.04296875 C-4.66149237 95.44931987 -24.11131792 89.45033811 -41 87 C-57.14820041 86.1224462 -73.55417929 85.75394312 -89 91 C-90.0206958 91.32943604 -90.0206958 91.32943604 -91.06201172 91.66552734 C-115.33157944 99.55802428 -132.13246579 116.14797736 -143.8828125 138.53515625 C-155.82938607 162.22706432 -157.15080608 187.89220089 -157.1418457 213.92553711 C-157.14488529 215.77681561 -157.14840891 217.62809337 -157.15237427 219.47937012 C-157.16019745 223.43406695 -157.16538279 227.38875503 -157.16866493 231.34345818 C-157.17462474 237.60160393 -157.19120731 243.85969434 -157.21000671 250.11781311 C-157.21634183 252.26798532 -157.22266748 254.41815755 -157.22898388 256.56832981 C-157.23214969 257.64414503 -157.2353155 258.71996025 -157.23857725 259.82837594 C-157.28053934 274.37589045 -157.31367091 288.9233761 -157.32592773 303.47094727 C-157.33430832 313.31740798 -157.35678606 323.16372815 -157.3952834 333.01011854 C-157.41501864 338.21033874 -157.42745636 343.41034901 -157.42244911 348.61060905 C-157.41780273 353.49378822 -157.43160755 358.37656783 -157.45946121 363.25966644 C-157.46636897 365.04785666 -157.46650402 366.83608823 -157.45926094 368.62427711 C-157.4503518 371.07123419 -157.46609733 373.51687901 -157.48774719 375.96372986 C-157.47508339 377.01651191 -157.47508339 377.01651191 -157.46216375 378.09056228 C-157.54868282 383.40301716 -159.01016007 387.65810761 -162 392 C-166.52755963 395.84441497 -170.73414161 396.50322018 -176.66015625 396.51757812 C-177.39120575 396.5245874 -178.12225525 396.53159668 -178.87545776 396.53881836 C-181.27153472 396.55630132 -183.66641283 396.5448113 -186.0625 396.53125 C-187.739667 396.53394773 -189.41683247 396.53783249 -191.09399414 396.54284668 C-194.60090088 396.54872856 -198.10739878 396.54022142 -201.61425781 396.52148438 C-206.09658862 396.49869528 -210.57796125 396.51182545 -215.06025696 396.53577423 C-218.52110947 396.55026791 -221.98173694 396.54560996 -225.44259644 396.53526306 C-227.09471756 396.53260562 -228.7468595 396.53583079 -230.3989563 396.54518127 C-232.71313142 396.55540641 -235.02578146 396.53976527 -237.33984375 396.51757812 C-238.65331787 396.51439575 -239.96679199 396.51121338 -241.32006836 396.50793457 C-245.76853918 395.89391987 -248.56443595 394.86135808 -252 392 C-256.90950284 384.72060969 -256.56419311 377.61722884 -256.50793457 369.07640076 C-256.51254701 367.55242777 -256.51890224 366.02845924 -256.52684355 364.50449997 C-256.54351281 360.32878657 -256.53530157 356.15343972 -256.52289867 351.97772515 C-256.51384071 347.46982559 -256.52782156 342.96198864 -256.53881836 338.45410156 C-256.55659976 329.62819709 -256.55276541 320.80242872 -256.5411678 311.97651892 C-256.53213284 304.80379832 -256.53090975 297.63111585 -256.53526306 290.45839119 C-256.53587599 289.43738787 -256.53648893 288.41638455 -256.53712043 287.36444174 C-256.53839934 285.29028112 -256.53969619 283.21612051 -256.5410108 281.14195991 C-256.55241534 261.69541717 -256.53930456 242.24894986 -256.51780933 222.80241949 C-256.49993579 206.11571911 -256.50304483 189.42913002 -256.52148438 172.74243164 C-256.54288867 153.36374153 -256.55131954 133.98511752 -256.53903532 114.60641724 C-256.53776112 112.54020918 -256.53650364 110.47400112 -256.53526306 108.40779305 C-256.53464596 107.39118124 -256.53402886 106.37456944 -256.53339306 105.32715122 C-256.52993904 98.16237929 -256.53576957 90.99764928 -256.54518127 83.83288383 C-256.55639761 75.10245281 -256.55336877 66.37216564 -256.5320583 57.6417511 C-256.52154339 53.18718663 -256.51743359 48.73286205 -256.53065491 44.27829933 C-256.54257538 40.20036891 -256.53602219 36.12290074 -256.5147447 32.04501224 C-256.51027718 30.57004028 -256.51254833 29.09502926 -256.52224785 27.62008243 C-256.60580725 13.85787382 -256.60580725 13.85787382 -252 8 C-247.60424062 4.21810513 -244.46096561 3.49687214 -238.72875977 3.48242188 C-238.027117 3.4754126 -237.32547424 3.46840332 -236.60256958 3.46118164 C-234.29843788 3.44367182 -231.995549 3.45519937 -229.69140625 3.46875 C-228.08007066 3.46605273 -226.46873666 3.46216836 -224.85740662 3.45715332 C-221.4857529 3.45126755 -218.1145241 3.45978994 -214.74291992 3.47851562 C-210.4343021 3.50128673 -206.12668205 3.48818864 -201.81810093 3.46422577 C-198.49192374 3.44972687 -195.16598055 3.4543927 -191.83979607 3.46473694 C-190.25186989 3.46739391 -188.66392205 3.4641709 -187.07602119 3.45481873 C-184.85032557 3.4445869 -182.62621334 3.46024416 -180.40063477 3.48242188 C-179.13743912 3.48560425 -177.87424347 3.48878662 -176.57276917 3.49206543 C-172.07922633 4.13090484 -169.74432178 5.4550047 -166 8 C-163.23366068 12.14718853 -162.56627828 15.69579537 -162.26953125 20.62109375 C-162.18896484 21.88759766 -162.10839844 23.15410156 -162.02539062 24.45898438 C-161.95513672 25.77189453 -161.88488281 27.08480469 -161.8125 28.4375 C-161.73064453 29.71560547 -161.64878906 30.99371094 -161.56445312 32.31054688 C-161.0297467 41.22082281 -160.90678907 50.07804065 -161 59 C-160.34 59 -159.68 59 -159 59 C-158.7436377 58.42056641 -158.48727539 57.84113281 -158.22314453 57.24414062 C-144.75986196 32.54264494 -108.88337951 13.97444613 -83.14453125 5.72265625 C-79.77816602 4.73254883 -76.40654985 3.84036428 -73 3 C-71.95972656 2.72542969 -70.91945313 2.45085938 -69.84765625 2.16796875 C-47.47865541 -3.4450191 -22.67089791 -4.21599154 0 0 Z " fill="#FFFFFF" transform="translate(484,584)"/>
<path d="M0 0 C0.97710938 0.22429688 1.95421875 0.44859375 2.9609375 0.6796875 C30.79876769 7.61773133 67.5689645 24.35344676 84 49 C84.30078125 51.05078125 84.30078125 51.05078125 84.3125 53.3125 C84.32925781 54.05113281 84.34601562 54.78976562 84.36328125 55.55078125 C83.52220152 61.2212865 80.15379352 65.27678411 76.5 69.5 C75.59851419 70.55580317 74.69884136 71.61315642 73.80078125 72.671875 C73.33752441 73.21779297 72.87426758 73.76371094 72.39697266 74.32617188 C70.09570204 77.08351395 67.8928108 79.9157479 65.6875 82.75 C61.57326706 88.02240098 57.40354288 93.24610842 53.1875 98.4375 C52.39702271 99.41251465 52.39702271 99.41251465 51.59057617 100.40722656 C50.06798385 102.27786058 48.53462679 104.13923423 47 106 C46.47873535 106.64598145 45.9574707 107.29196289 45.42041016 107.95751953 C44.64963135 108.89313721 44.64963135 108.89313721 43.86328125 109.84765625 C43.40864502 110.40590088 42.95400879 110.96414551 42.4855957 111.53930664 C39.82213682 114.15811921 37.41360988 114.93636771 33.75 115.5 C27.78302443 114.70440326 24.30799338 111.17142572 20.01953125 107.13671875 C-3.15867721 85.43704516 -33.81356309 80.03366884 -64.515625 80.82080078 C-71.70986322 81.19079594 -78.19038137 82.73483152 -85 85 C-85.66209473 85.20898926 -86.32418945 85.41797852 -87.00634766 85.63330078 C-113.44739653 94.06387165 -132.31785906 111.56087548 -145.04248047 136.09570312 C-147.32282043 140.63080044 -149.26655729 145.23142153 -151 150 C-151.35707031 150.95390625 -151.71414063 151.9078125 -152.08203125 152.890625 C-160.67037761 177.98017616 -160.92440265 207.56121263 -154 233 C-153.81808105 233.70366699 -153.63616211 234.40733398 -153.44873047 235.13232422 C-146.26213101 262.52360813 -129.81964768 286.54635608 -105.34375 301.0859375 C-104.2403125 301.71757813 -103.136875 302.34921875 -102 303 C-101.0409375 303.54914063 -100.081875 304.09828125 -99.09375 304.6640625 C-77.59318734 316.18222107 -48.93390515 318.97606303 -25.296875 313.0390625 C-6.70180073 307.17852961 11.13576464 299.13169677 24.5 284.41015625 C27.38244844 281.70035446 29.84616475 281.02307529 33.75 280.4375 C38.29099134 280.61279562 40.54367067 282.45429063 43.734375 285.55078125 C50.82375936 293.2146502 57.46761682 301.2397566 63.93359375 309.43359375 C66.44061042 312.54722315 69.02979162 315.58486148 71.625 318.625 C84.41389887 333.63396598 84.41389887 333.63396598 84.26953125 340.91796875 C83.14772631 349.58350548 72.21784539 355.9199779 65.875 360.875 C41.25170401 379.75250293 13.49075018 392.21905734 -17 398 C-18.18335938 398.23332031 -19.36671875 398.46664063 -20.5859375 398.70703125 C-43.05406157 402.80554732 -67.45925331 402.45595903 -90 399 C-90.80743652 398.88172852 -91.61487305 398.76345703 -92.44677734 398.64160156 C-112.24439302 395.64277213 -131.57187828 389.73173036 -149.13330078 380.02539062 C-151.05217306 378.97134098 -152.99010665 377.9609653 -154.93359375 376.953125 C-165.48159075 371.37707432 -174.71495412 364.45570342 -184 357 C-185.08959362 356.13770468 -186.179416 355.27569828 -187.26953125 354.4140625 C-196.405618 347.09019542 -203.7035659 339.14377967 -211 330 C-211.90029568 328.90173181 -212.80135991 327.80409326 -213.703125 326.70703125 C-233.40232187 302.51661096 -244.74881845 274.3216906 -251 244 C-251.16951172 243.23268555 -251.33902344 242.46537109 -251.51367188 241.67480469 C-254.37867381 228.3252334 -255.33219199 215.1575736 -255.26074219 201.54638672 C-255.25003785 199.13353181 -255.26070488 196.72142614 -255.2734375 194.30859375 C-255.30509604 159.17542172 -246.96554779 124.8420627 -230 94 C-229.48832275 93.06945801 -229.48832275 93.06945801 -228.96630859 92.12011719 C-220.51145671 76.9746303 -210.01200651 63.47400676 -198 51 C-197.4225 50.3709375 -196.845 49.741875 -196.25 49.09375 C-147.68474863 -2.38541645 -66.24447665 -15.91053318 0 0 Z " fill="#FFFFFF" transform="translate(2034,587)"/>
<path d="M0 0 C0.7189595 -0.00817749 1.43791901 -0.01635498 2.17866516 -0.02478027 C4.56425139 -0.04964253 6.94977788 -0.06615646 9.33544922 -0.08056641 C10.55888346 -0.08855192 10.55888346 -0.08855192 11.80703354 -0.09669876 C16.12801931 -0.1234399 20.44897616 -0.14280763 24.77001953 -0.15722656 C28.3396175 -0.17054263 31.90864067 -0.19834981 35.47802734 -0.23925781 C39.79221617 -0.28870142 44.10588526 -0.31336256 48.42034531 -0.32045364 C50.06053207 -0.32714835 51.70070805 -0.34232395 53.34073257 -0.36634445 C68.77231642 -0.57938032 68.77231642 -0.57938032 74.57394409 3.62924194 C79.11914941 8.56058519 79.44729286 12.63731849 79.39545345 19.05293941 C79.40011337 19.95006074 79.40477329 20.84718206 79.40957442 21.77148888 C79.42157498 24.79335789 79.41210942 27.81478148 79.40281677 30.83665466 C79.40698747 33.01871597 79.41246352 35.20077511 79.41913658 37.3828302 C79.43364453 43.39142526 79.42932978 49.39988378 79.42196977 55.40848649 C79.41725362 61.8837064 79.42973414 68.35889611 79.43998718 74.83410645 C79.45680923 86.79024422 79.45861417 98.74634048 79.45368219 110.7024873 C79.44912815 121.74763306 79.44972028 132.79276256 79.45552254 143.83790779 C79.4562794 145.31846972 79.45703538 146.79903165 79.45779048 148.27959358 C79.45893565 150.51056135 79.46008553 152.74152912 79.46124973 154.97249688 C79.4719576 175.71891935 79.47667701 196.46533639 79.46877956 217.21176052 C79.46848239 217.99411221 79.46818522 218.77646389 79.46787904 219.58252321 C79.46543001 225.93610773 79.46281847 232.2896922 79.46019491 238.64327665 C79.45009147 263.42944649 79.45844854 288.21554859 79.48168945 313.00170898 C79.50774885 340.83890154 79.52061355 368.67605331 79.5135017 396.51325852 C79.51278562 399.48017855 79.51211124 402.44709859 79.51146126 405.41401863 C79.51129145 406.1445682 79.51112164 406.87511776 79.51094668 407.62780519 C79.50864161 418.66611018 79.51663058 429.70437736 79.52975273 440.74267387 C79.54464549 453.29289764 79.54515656 465.84302631 79.52768182 478.39324837 C79.51914036 484.80000385 79.51709887 491.20658971 79.53233337 497.61333656 C79.54609682 503.473852 79.54152526 509.33405115 79.52209414 515.1945479 C79.51830808 517.31898548 79.52133032 519.4434479 79.53170579 521.56786352 C79.54477585 524.44794841 79.53338151 527.32692542 79.51570797 530.20696163 C79.52535848 531.03846905 79.53500899 531.86997647 79.54495195 532.72668108 C79.47812097 538.00365906 78.50959772 541.00441396 75.01513672 545.19287109 C70.01704249 548.72810847 66.05481775 549.3251744 60.00854492 549.38574219 C59.29919296 549.39391968 58.589841 549.40209717 57.85899353 549.41052246 C55.51131016 549.43533365 53.1636872 549.45188386 50.81591797 549.46630859 C49.61040818 549.47429411 49.61040818 549.47429411 48.38054466 549.48244095 C44.124393 549.50915745 39.86827048 549.52853475 35.61206055 549.54296875 C32.09779745 549.55629235 28.58411716 549.5841171 25.07006836 549.625 C20.81956407 549.67444617 16.5695872 549.69910456 12.3188076 549.70619583 C10.70373972 549.71288853 9.08868269 549.72805888 7.47377968 549.75208664 C-7.64008218 549.96408335 -7.64008218 549.96408335 -13.53474426 545.95181274 C-18.00258016 540.53249023 -18.4202721 534.87236914 -18.36518002 528.15196991 C-18.36983993 527.25959399 -18.37449985 526.36721807 -18.37930098 525.44780046 C-18.39126283 522.45410502 -18.38185084 519.46086241 -18.37254333 516.46716309 C-18.37671571 514.30058754 -18.3821927 512.13401419 -18.38886315 509.9674449 C-18.40334883 504.01090497 -18.39906324 498.05450305 -18.39169633 492.09795547 C-18.38697475 485.67524008 -18.3994655 479.25255499 -18.40971375 472.82984924 C-18.42593125 460.97409384 -18.4283431 449.11838652 -18.42340875 437.26262237 C-18.41885263 426.31032476 -18.41944945 415.35804354 -18.4252491 404.40574646 C-18.42600596 402.93696347 -18.42676194 401.46818048 -18.42751705 399.99939749 C-18.42866223 397.7861193 -18.42981211 395.57284111 -18.43097629 393.35956293 C-18.44168186 372.78175295 -18.44640587 352.20394844 -18.43850613 331.62613678 C-18.43806037 330.46249229 -18.43806037 330.46249229 -18.4376056 329.27533982 C-18.43515663 322.97547072 -18.43254506 316.67560168 -18.42992147 310.37573265 C-18.41981719 285.79733749 -18.42817764 261.21901064 -18.45141602 236.640625 C-18.47747894 209.0301071 -18.49033928 181.41963033 -18.48322827 153.80909967 C-18.48251219 150.86606503 -18.48183781 147.92303038 -18.48118782 144.97999573 C-18.48101801 144.25533919 -18.4808482 143.53068265 -18.48067325 142.78406682 C-18.47836888 131.8383237 -18.48635371 120.89261872 -18.49947929 109.94688416 C-18.51437619 97.50176994 -18.51487767 85.05676215 -18.49740838 72.61164796 C-18.48887057 66.25943637 -18.48681669 59.90739582 -18.50205994 53.55519295 C-18.51583395 47.74343193 -18.51123798 41.93198966 -18.4918207 36.12024742 C-18.48803796 34.01469424 -18.49104755 31.90911596 -18.50143235 29.80358499 C-18.51452454 26.94659361 -18.50308814 24.09071508 -18.48543453 21.23377228 C-18.4999103 20.00093528 -18.4999103 20.00093528 -18.51467851 18.74319249 C-18.44292195 13.10669629 -17.20242224 9.84453495 -13.98486328 5.19287109 C-9.11281429 0.78482677 -6.52243712 0.06433616 0 0 Z " fill="#FFFFFF" transform="translate(1173.98486328125,430.80712890625)"/>
<path d="M0 0 C0.69971924 0.00304138 1.39943848 0.00608276 2.12036133 0.00921631 C12.63287366 0.07669649 22.11033237 0.80416896 32.0625 4.4375 C33.39781084 4.87950185 34.73377605 5.31953062 36.0703125 5.7578125 C62.65464753 14.79150795 83.67190086 33.35694615 96.3125 58.4375 C101.68014572 69.43063738 105.75237095 80.39595234 108.0625 92.4375 C108.26875 93.40945313 108.475 94.38140625 108.6875 95.3828125 C112.03383484 113.92708472 111.33034564 134.11519715 107.0625 152.4375 C106.64484375 154.23960937 106.64484375 154.23960937 106.21875 156.078125 C103.82141404 165.29546841 100.14238701 173.86231086 96.0625 182.4375 C95.60101562 183.41589844 95.13953125 184.39429688 94.6640625 185.40234375 C82.01555875 210.29723118 59.48323974 226.61163012 33.58203125 235.65234375 C22.83343548 239.12801166 12.66672126 239.67449238 1.43920898 239.73266602 C-0.08757863 239.74410202 -1.61432897 239.76441855 -3.14086914 239.79418945 C-31.73960354 240.34923374 -56.62005848 229.25087008 -77.6015625 209.9921875 C-83.19581991 204.60074305 -87.76256142 198.97892604 -91.9375 192.4375 C-92.43765625 191.69371094 -92.9378125 190.94992187 -93.453125 190.18359375 C-101.41044073 177.80787376 -105.98091444 163.75449025 -108.9375 149.4375 C-109.11482666 148.6832373 -109.29215332 147.92897461 -109.47485352 147.15185547 C-111.21692165 139.02840647 -111.27574566 131.00304828 -111.25317383 122.73339844 C-111.25003267 120.33741883 -111.27348198 117.94270127 -111.29882812 115.546875 C-111.4344103 82.62409645 -98.81939139 52.36683202 -76.25 28.375 C-55.95704949 8.79131766 -27.7350204 -0.25760337 0 0 Z " fill="#000000" transform="translate(1522.9375,664.5625)"/>
<path d="M0 0 C7.39222905 6.93720533 9.07534046 19.42120308 11 29 C11.17063965 29.69335449 11.3412793 30.38670898 11.51708984 31.10107422 C13.26543919 38.64928111 13.29651342 46.02877228 13.25 53.75 C13.25773438 55.0184375 13.26546875 56.286875 13.2734375 57.59375 C13.20649593 90.39512086 2.22882523 122.55839164 -21 146 C-21.62777344 146.67675781 -22.25554687 147.35351562 -22.90234375 148.05078125 C-27.39779706 152.82125053 -32.52202646 156.43064167 -38 160 C-38.78246094 160.515625 -39.56492187 161.03125 -40.37109375 161.5625 C-64.40040309 176.71398569 -95.29140769 181.0283006 -122.96484375 175.04296875 C-133.25985992 172.52618664 -144.7312018 168.77828522 -153 162 C-153.7002206 160.68397821 -154.37168497 159.3518293 -155 158 C-154.06728271 157.07251953 -153.13456543 156.14503906 -152.17358398 155.18945312 C-148.68400607 151.71809851 -145.19783964 148.24333449 -141.71264648 144.76757812 C-140.20933045 143.26926293 -138.70511464 141.77184993 -137.19995117 140.27539062 C-135.0254053 138.11309775 -132.8542129 135.94748387 -130.68359375 133.78125 C-130.01976181 133.12257935 -129.35592987 132.46390869 -128.67198181 131.78527832 C-124.85377072 127.96751775 -121.25044193 124.03158703 -117.72206116 119.94567871 C-114.94640508 116.80959094 -111.98090015 113.87704337 -109 110.9375 C-108.0409375 109.98411743 -108.0409375 109.98411743 -107.0625 109.01147461 C-104.36581517 106.33091985 -101.6631227 103.65645336 -98.9609375 100.98144531 C-96.97183897 99.01058659 -94.98587103 97.03660995 -93 95.0625 C-92.401875 94.47267334 -91.80375 93.88284668 -91.1875 93.27514648 C-88.18449892 90.28932217 -85.30856825 87.2472198 -82.54101562 84.04101562 C-78.98765794 79.9304527 -75.20848634 76.09766834 -71.34375 72.28125 C-70.2848053 71.22798523 -70.2848053 71.22798523 -69.20446777 70.15344238 C-66.22102625 67.18616234 -63.2315929 64.22494637 -60.24267578 61.26318359 C-58.04509421 59.08381535 -55.85062062 56.90135053 -53.65625 54.71875 C-52.99250366 54.063302 -52.32875732 53.407854 -51.64489746 52.73254395 C-48.50878734 49.61268208 -45.48362901 46.45295859 -42.59741211 43.09960938 C-38.54590247 38.40674766 -34.18116188 34.05573272 -29.78515625 29.6875 C-28.92941513 28.83317383 -28.07367401 27.97884766 -27.19200134 27.09863281 C-24.48452619 24.39671138 -21.77357746 21.69830641 -19.0625 19 C-17.21526325 17.15778423 -15.36825573 15.31533857 -13.52148438 13.47265625 C-9.01696997 8.97910939 -4.50960595 4.4884368 0 0 Z " fill="#000000" transform="translate(982,728)"/>
<path d="M0 0 C2.09123944 -0.00961489 4.18145501 -0.04065854 6.27246094 -0.07226562 C25.03360735 -0.22023424 41.37663084 4.76530202 57.62402344 14.24023438 C53.09713729 20.74841113 47.86575444 26.26664691 42.24145508 31.83398438 C41.31548019 32.75864502 40.38950531 33.68330566 39.43547058 34.63598633 C37.43481991 36.6337229 35.43107744 38.62828452 33.42479134 40.62036133 C30.24578606 43.77692671 27.07404314 46.94072447 23.90318298 50.10546875 C18.88291138 55.1143947 13.85798637 60.11862185 8.83097309 65.12078094 C-0.16290587 74.07026104 -9.15120732 83.0253339 -18.13421541 91.9857254 C-21.28076845 95.12392502 -24.43010645 98.25929383 -27.58179653 101.39233398 C-29.07303917 102.87544794 -30.56311929 104.35971861 -32.05271912 105.84448242 C-33.85965217 107.64544274 -35.66839679 109.44458831 -37.47940063 111.24145508 C-41.77193424 115.52594377 -45.89266468 119.88477676 -49.84658337 124.48345947 C-51.9039737 126.8467312 -54.08319998 129.06726736 -56.30151367 131.27929688 C-57.20191879 132.17962646 -58.10232391 133.07995605 -59.03001404 134.00756836 C-59.98772802 134.96017877 -60.94549804 135.91273285 -61.90332031 136.86523438 C-62.90244685 137.86249114 -63.90134936 138.8599724 -64.90003967 139.85766602 C-67.50344606 142.45729117 -70.10984326 145.05389669 -72.71691895 147.64984131 C-75.3870193 150.30963201 -78.05421934 152.97232778 -80.72167969 155.63476562 C-85.93697694 160.83940325 -91.15544372 166.04084778 -96.37597656 171.24023438 C-111.13070326 152.26660972 -109.23264753 119.65461848 -107.06689453 97.00830078 C-103.09812055 67.50353278 -86.87324088 38.54882834 -63.37597656 20.24023438 C-44.51302296 6.76669609 -23.04103452 0.0637373 0 0 Z " fill="#000000" transform="translate(879.3759765625,664.759765625)"/>
<path d="M0 0 C12.87 -0.12375 12.87 -0.12375 26 -0.25 C28.67351563 -0.28641602 31.34703125 -0.32283203 34.1015625 -0.36035156 C52.86912322 -0.50905336 71.66636181 0.44893294 86.125 14.00390625 C96.69039113 25.25164556 101.42116998 38.90640735 101.27734375 54.16796875 C100.28365815 67.89762468 94.12092579 80.65611266 84 90 C70.92751112 99.97261632 58.26516432 102.16863876 42.28515625 102.09765625 C41.21100464 102.09664917 40.13685303 102.09564209 39.03015137 102.09460449 C35.04092329 102.08939644 31.0517105 102.07543526 27.0625 102.0625 C13.6665625 102.0315625 13.6665625 102.0315625 0 102 C0 68.34 0 34.68 0 0 Z " fill="#FFFFFF" transform="translate(2045,1108)"/>
<path d="M0 0 C8.45625 -0.061875 16.9125 -0.12375 25.625 -0.1875 C29.5842749 -0.22846802 29.5842749 -0.22846802 33.62353516 -0.27026367 C51.19568033 -0.3765623 67.31447004 0.23061136 82 11 C83.4540625 12.051875 83.4540625 12.051875 84.9375 13.125 C92.99605478 20.04139741 98.4393981 30.54691178 100 41 C101.07855751 58.17021266 99.22728648 72.56909001 87.9375 86.125 C79.23395339 95.38960168 67.25759655 101.04303403 54.60049438 102.35140991 C51.0747869 102.45788135 47.56967646 102.45148608 44.04296875 102.390625 C42.91588501 102.38659668 41.78880127 102.38256836 40.62756348 102.37841797 C36.48070628 102.35773887 32.33408401 102.30189688 28.1875 102.25 C18.885625 102.1675 9.58375 102.085 0 102 C0 68.34 0 34.68 0 0 Z " fill="#FFFFFF" transform="translate(1674,1108)"/>
<path d="M0 0 C0.99854004 0.00499512 1.99708008 0.00999023 3.02587891 0.01513672 C19.0203416 0.38901985 31.61169694 6.49267382 42.6796875 18.0234375 C52.69385089 30.00264427 55.98904335 44.26435587 54.75 59.5 C52.66232108 73.92396348 45.64921745 86.53829986 34.1484375 95.53515625 C23.59356908 102.69847473 13.03294247 105.2282931 0.375 105.0625 C-1.40390625 105.04606445 -1.40390625 105.04606445 -3.21875 105.02929688 C-18.40425679 104.65383105 -29.42903747 99.86783089 -40.53125 89.3359375 C-51.36283722 77.89810473 -54.81507683 64.06763386 -54.73754883 48.64868164 C-54.25031112 33.94522292 -47.45490557 22.14413319 -36.875 12.125 C-26.30147834 3.27148614 -13.60269309 -0.09039104 0 0 Z " fill="#FFFFFF" transform="translate(2360.25,1106.5)"/>
<path d="M0 0 C2.30570788 1.6621627 4.30718743 3.41322425 6.34375 5.39453125 C7.49617187 6.48894531 7.49617187 6.48894531 8.671875 7.60546875 C14.71813975 13.79187871 18.26584081 20.35023299 21.34375 28.39453125 C21.61058594 29.06871094 21.87742187 29.74289062 22.15234375 30.4375 C26.30117287 43.39901444 22.96432185 57.69647715 17.53125 69.64453125 C10.67131923 82.20348143 -0.16713573 90.68244186 -13.65625 95.39453125 C-29.38006203 99.09284819 -47.51021969 97.91186286 -61.46875 89.75 C-73.38407709 81.89510432 -82.2556105 70.94126911 -85.2109375 56.7265625 C-87.37989067 40.49746552 -85.71286917 24.83322056 -75.65625 11.39453125 C-67.66126684 1.94172967 -58.64327142 -3.68231791 -46.65625 -6.60546875 C-46.05506348 -6.77530273 -45.45387695 -6.94513672 -44.83447266 -7.12011719 C-29.54413678 -10.52710976 -13.2869931 -8.03081495 0 0 Z " fill="#FFFFFF" transform="translate(909.65625,1114.60546875)"/>
<path d="M0 0 C1.42119141 -0.01836914 1.42119141 -0.01836914 2.87109375 -0.03710938 C17.81642202 -0.06777694 31.47354699 4.4271326 42.4140625 14.9609375 C54.15087166 28.28759332 57.45721144 42.92021532 56.375 60.1875 C54.53686081 73.58410766 48.39855843 85.27514892 37.98583984 93.97851562 C23.43737732 104.89757995 6.83670265 105.35940624 -10.625 104.1875 C-19.41523286 102.72246119 -26.44986437 98.30591923 -33.625 93.1875 C-35.23375 92.0428125 -35.23375 92.0428125 -36.875 90.875 C-48.16238142 79.84414998 -52.54829679 66.67101908 -52.9375 51.1875 C-52.69435752 37.26759296 -47.26463828 24.28269774 -37.625 14.1875 C-26.42303764 4.38357086 -14.63314119 0.00971656 0 0 Z " fill="#FFFFFF" transform="translate(277.625,1106.8125)"/>
<path d="M0 0 C11.39877022 7.40387411 19.8662074 17.93404323 23.85546875 30.98046875 C26.80408212 47.47151595 24.62266145 63.43338777 15.5078125 77.62890625 C7.30205457 88.17157906 -4.17687665 95.46769252 -17.4921875 97.62890625 C-36.69032188 99.19413349 -52.54213694 97.44309778 -67.7421875 84.75 C-78.17264628 74.9714449 -83.46633097 62.45399991 -83.96508789 48.24145508 C-84.12758942 32.57542935 -80.07113131 19.56481683 -69.2421875 7.87890625 C-62.04104211 1.17716915 -54.04154812 -3.15822943 -44.4921875 -5.37109375 C-43.88109131 -5.54237793 -43.26999512 -5.71366211 -42.64038086 -5.89013672 C-28.86206422 -8.97495133 -12.32826647 -6.63982197 0 0 Z " fill="#FFFFFF" transform="translate(1626.4921875,1113.37109375)"/>
<path d="M0 0 C8.806875 -0.0825 17.61375 -0.165 26.6875 -0.25 C29.44053467 -0.28641602 32.19356934 -0.32283203 35.0300293 -0.36035156 C37.25308456 -0.37205227 39.47614851 -0.3822408 41.69921875 -0.390625 C43.38078064 -0.4213208 43.38078064 -0.4213208 45.09631348 -0.45263672 C57.25785827 -0.45790887 69.22099514 2.47889207 78.15625 11.07421875 C86.06232768 19.51023279 88.35152865 27.40276203 88.2109375 38.875 C87.5871654 48.11606821 83.90179855 56.65501655 76.90234375 62.859375 C74.35672896 64.79977103 71.86479494 66.56760253 69 68 C69.61666468 72.16489795 71.9581833 75.28417913 74.25390625 78.69921875 C74.67421616 79.33487259 75.09452606 79.97052643 75.52757263 80.6254425 C76.86721037 82.6497297 78.21440257 84.66883887 79.5625 86.6875 C80.91296534 88.71763481 82.26180109 90.7488181 83.60813904 92.7816925 C84.44568226 94.04550471 85.28584401 95.30758605 86.12879944 96.5677948 C89 100.88879774 89 100.88879774 89 102 C80.77888092 103.24926415 72.08175632 104.41895863 64 102 C57.02756311 96.62580074 53.33579697 87.53005404 49.98364258 79.59375 C48.84542303 77.27433969 47.93804778 75.71641084 46 74 C42.04215855 72.89280542 38.27530261 72.9270188 34.1875 73 C30.495625 73 26.80375 73 23 73 C23 82.9 23 92.8 23 103 C15.41 103 7.82 103 0 103 C0 69.01 0 35.02 0 0 Z " fill="#FFFFFF" transform="translate(1072,1108)"/>
<path d="M0 0 C65.7578125 0 65.7578125 0 77.1875 10.6875 C85.62412876 19.5891398 87.5017869 28.16792039 87.28515625 40.1953125 C86.48730323 50.84063916 80.79093465 58.68888009 73 65.58203125 C70.93557101 67.04567915 69.4378096 67.46514204 67 68 C69.3742164 71.64634417 71.74951795 75.29198026 74.125 78.9375 C74.79015625 79.95908203 75.4553125 80.98066406 76.140625 82.03320312 C76.79804688 83.04189453 77.45546875 84.05058594 78.1328125 85.08984375 C78.7815332 86.08612793 79.43025391 87.08241211 80.09863281 88.10888672 C82.34374075 91.52267309 84.64208402 94.8983004 86.96435547 98.26000977 C88 100 88 100 88 102 C66.86757753 103.77677353 66.86757753 103.77677353 61.01171875 100.1484375 C58.92757715 97.19404405 57.46182953 94.31082677 56 91 C51.85191897 81.51292387 51.85191897 81.51292387 45 74 C37.40778781 71.63368395 29.88513754 72.58979053 22 73 C22 82.57 22 92.14 22 102 C14.74 102 7.48 102 0 102 C0 68.34 0 34.68 0 0 Z " fill="#FFFFFF" transform="translate(2438,1108)"/>
<path d="M0 0 C12.74625 -0.0928125 12.74625 -0.0928125 25.75 -0.1875 C29.73658691 -0.22846802 29.73658691 -0.22846802 33.80371094 -0.27026367 C35.94726103 -0.27903835 38.09081618 -0.28667995 40.234375 -0.29296875 C41.31734863 -0.30831665 42.40032227 -0.32366455 43.51611328 -0.33947754 C56.29218427 -0.34378795 68.13751942 2.40189947 77.75 11.1875 C85.24621893 19.13697868 87.32146292 28.03428989 87.21484375 38.61328125 C86.58693817 48.51135652 82.55651 56.83434514 75.4375 63.6875 C66.60525562 70.99752045 56.18468507 73.14748749 44.97265625 73.09765625 C43.23254272 73.09390991 43.23254272 73.09390991 41.45727539 73.09008789 C40.00699951 73.08098389 38.55672363 73.07187988 37.0625 73.0625 C30.1015625 73.0315625 30.1015625 73.0315625 23 73 C23 82.57 23 92.14 23 102 C15.41 102 7.82 102 0 102 C0 68.34 0 34.68 0 0 Z " fill="#FFFFFF" transform="translate(357,1108)"/>
<path d="M0 0 C20 0 20 0 24.5625 4.125 C25.7346685 6.06768486 26.8783198 8.02773303 28 10 C29.67729395 12.28810444 31.4660746 14.48206028 33.25 16.6875 C34.192999 17.88677014 35.13437973 19.08731435 36.07421875 20.2890625 C39.04524699 24.06709841 42.05257691 27.81543317 45.0625 31.5625 C49.63191921 37.25531759 54.11912012 43.00408393 58.55078125 48.8046875 C61.67925842 52.88617766 64.84277308 56.94070825 68 61 C68.33 40.87 68.66 20.74 69 0 C76.59 0 84.18 0 92 0 C92 33.66 92 67.32 92 102 C72 102 72 102 67.37109375 98.7734375 C65.82348633 96.66723633 65.82348633 96.66723633 64.4375 94.375 C63.89053467 93.60244873 63.34356934 92.82989746 62.7800293 92.03393555 C61.66959662 90.46350108 60.58372365 88.8753819 59.52441406 87.27001953 C57.30472775 83.96466346 54.81412909 80.9059171 52.3125 77.8125 C51.41931639 76.67387745 50.52866976 75.53326002 49.640625 74.390625 C46.95560132 70.94186125 44.2610235 67.50070807 41.5625 64.0625 C41.1190625 63.4960376 40.675625 62.9295752 40.21875 62.34594727 C37.71937309 59.16022925 35.19426335 55.99790314 32.640625 52.85546875 C31.80809204 51.82764282 31.80809204 51.82764282 30.95874023 50.77905273 C29.87909141 49.44834513 28.79539878 48.12090606 27.70727539 46.79711914 C24 42.22232775 24 42.22232775 24 40 C23.34 40 22.68 40 22 40 C22 60.46 22 80.92 22 102 C14.74 102 7.48 102 0 102 C0 68.34 0 34.68 0 0 Z " fill="#FFFFFF" transform="translate(566,1108)"/>
<path d="M0 0 C25.08 0 50.16 0 76 0 C76 6.27 76 12.54 76 19 C58.51 19 41.02 19 23 19 C23 26.26 23 33.52 23 41 C38.51 41 54.02 41 70 41 C70 46.94 70 52.88 70 59 C54.49 59 38.98 59 23 59 C23 67.25 23 75.5 23 84 C41.15 84 59.3 84 78 84 C78 90.27 78 96.54 78 103 C52.26 103 26.52 103 0 103 C0 69.01 0 35.02 0 0 Z " fill="#FFFFFF" transform="translate(465,1108)"/>
<path d="M0 0 C25.08 0 50.16 0 76 0 C76 5.94 76 11.88 76 18 C58.51 18 41.02 18 23 18 C23 25.59 23 33.18 23 41 C38.18 41 53.36 41 69 41 C69 46.94 69 52.88 69 59 C53.82 59 38.64 59 23 59 C23 66.92 23 74.84 23 83 C41.15 83 59.3 83 78 83 C78 89.6 78 96.2 78 103 C52.26 103 26.52 103 0 103 C0 69.01 0 35.02 0 0 Z " fill="#FFFFFF" transform="translate(1797,1108)"/>
<path d="M0 0 C25.08 0 50.16 0 76 0 C76 6.27 76 12.54 76 19 C58.51 19 41.02 19 23 19 C23 26.26 23 33.52 23 41 C38.18 41 53.36 41 69 41 C69 46.94 69 52.88 69 59 C53.82 59 38.64 59 23 59 C23 67.25 23 75.5 23 84 C41.15 84 59.3 84 78 84 C78 89.94 78 95.88 78 102 C52.26 102 26.52 102 0 102 C0 68.34 0 34.68 0 0 Z " fill="#FFFFFF" transform="translate(1944,1108)"/>
<path d="M0 0 C25.08 0 50.16 0 76 0 C76 5.94 76 11.88 76 18 C58.51 18 41.02 18 23 18 C23 25.59 23 33.18 23 41 C38.51 41 54.02 41 70 41 C70 46.94 70 52.88 70 59 C54.49 59 38.98 59 23 59 C23 67.25 23 75.5 23 84 C40.82 84 58.64 84 77 84 C77 89.94 77 95.88 77 102 C51.59 102 26.18 102 0 102 C0 68.34 0 34.68 0 0 Z " fill="#FFFFFF" transform="translate(1294,1108)"/>
<path d="M0 0 C7.59 0 15.18 0 23 0 C23.01401855 2.87501221 23.01401855 2.87501221 23.02832031 5.80810547 C23.06398814 12.17451006 23.11787447 18.54056175 23.18390274 24.90672112 C23.22324074 28.76269998 23.25549551 32.61845517 23.27099609 36.47460938 C23.28625387 40.20316904 23.3208576 43.93111318 23.36830902 47.65939713 C23.38302969 49.07453149 23.39103561 50.48975378 23.39188385 51.90496445 C23.40380084 61.82714749 24.49486229 69.50861759 29.875 77.9375 C34.56139178 82.48605673 39.10238453 83.41400985 45.5 83.375 C46.7684375 83.38273437 48.036875 83.39046875 49.34375 83.3984375 C54.67636117 82.81731962 57.87714166 81.09674536 61.6875 77.375 C67.83106016 69.25962207 67.46854447 59.65589293 67.51171875 49.90234375 C67.52859386 48.45787559 67.54674784 47.01342186 67.56611633 45.56898499 C67.61331575 41.79619865 67.64331823 38.02347084 67.66955566 34.25048828 C67.69951431 30.38887986 67.74599141 26.52747257 67.79101562 22.66601562 C67.87670614 15.11076044 67.94267233 7.55553339 68 0 C75.59 0 83.18 0 91 0 C91.09087947 8.64158913 91.16404608 17.28279792 91.20724869 25.92473888 C91.22799852 29.93885949 91.25608078 33.95263224 91.30175781 37.96655273 C91.34567179 41.85047568 91.36923149 45.73406705 91.37950897 49.61821938 C91.38681967 51.08959475 91.40109206 52.56095489 91.42292023 54.03218651 C91.62976889 68.57089193 89.1711925 81.36628717 78.9296875 92.1875 C68.92972714 101.66481435 59.11282474 103.18120811 45.75 103.25 C44.76386719 103.270625 43.77773438 103.29125 42.76171875 103.3125 C31.02148817 103.3743721 20.93012343 100.02678049 11.9921875 92.25390625 C4.03380956 83.96823572 -0.26999029 71.41243105 -0.22705078 60.05493164 C-0.22734283 59.40042023 -0.22763489 58.74590881 -0.22793579 58.07156372 C-0.22655594 55.93428724 -0.21105936 53.7973709 -0.1953125 51.66015625 C-0.19157757 50.16800629 -0.18873286 48.67585386 -0.18673706 47.18370056 C-0.17913839 43.27596137 -0.15952274 39.36837328 -0.1373291 35.46069336 C-0.11678907 31.46535282 -0.10771798 27.46998762 -0.09765625 23.47460938 C-0.07627287 15.64966306 -0.04112194 7.82487204 0 0 Z " fill="#FFFFFF" transform="translate(954,1108)"/>
<path d="M0 0 C1.06927734 -0.020625 2.13855469 -0.04125 3.24023438 -0.0625 C12.86292245 -0.1090145 22.13350512 1.28312043 30.6875 5.9375 C31.50734375 6.37449219 32.3271875 6.81148437 33.171875 7.26171875 C34.04585937 7.75091797 34.04585937 7.75091797 34.9375 8.25 C34.28246718 12.30819183 32.99190879 15.78971282 31.375 19.5625 C30.91996094 20.63113281 30.46492187 21.69976563 29.99609375 22.80078125 C29.47208984 24.01314453 29.47208984 24.01314453 28.9375 25.25 C24.0598212 24.38923315 19.54429127 22.8074582 14.875 21.1875 C9.67033618 19.52643708 4.97137612 19.06611935 -0.5 19 C-1.77746094 18.97421875 -3.05492187 18.9484375 -4.37109375 18.921875 C-9.08566881 19.34094834 -12.17406955 20.80260426 -15.90234375 23.66015625 C-17.41771789 25.73678008 -17.56030485 27.12988525 -17.625 29.6875 C-17.66753906 30.44933594 -17.71007812 31.21117187 -17.75390625 31.99609375 C-16.90873633 34.75125219 -15.67615959 35.81353889 -13.22729492 37.27416992 C-8.19057873 39.54458321 -2.76375817 40.7792485 2.5625 42.1875 C30.76249723 49.69646404 30.76249723 49.69646404 37.8125 60.125 C41.47936396 67.23325732 40.99780328 75.5534802 39.2734375 83.19140625 C36.27233154 91.73803411 30.93306126 96.40692376 23.0625 100.5625 C8.10060125 107.48076391 -10.36231712 107.07533468 -26.0625 102.25 C-31.65085468 100.10017345 -37.0326013 97.49847624 -42.0625 94.25 C-43.48850325 89.97199024 -41.51887064 87.38234078 -39.625 83.5625 C-39.28662109 82.86060547 -38.94824219 82.15871094 -38.59960938 81.43554688 C-37.76268652 79.70276294 -36.91372607 77.97580248 -36.0625 76.25 C-32.64257973 77.33683907 -29.45567316 78.45597319 -26.3125 80.1875 C-14.81711078 85.93519461 -1.01777344 87.65101725 11.5 84 C15.01569424 82.7015618 15.01569424 82.7015618 15.62890625 80.359375 C16.09550036 77.16999753 16.28277658 74.47258145 15.9375 71.25 C10.60998394 64.82023924 0.39413886 63.31875754 -7.37207031 61.49462891 C-19.73772877 58.57898034 -31.77122807 55.57985069 -39.0625 44.25 C-42.52725507 37.4138166 -42.34871827 27.09062699 -40 19.8125 C-35.24711789 9.83144758 -26.96025781 5.28631968 -17.0625 1.25 C-11.40867879 -0.11886911 -5.78670753 0.02721556 0 0 Z " fill="#FFFFFF" transform="translate(768.0625,1106.75)"/>
<path d="M0 0 C0.70640625 0.25523438 1.4128125 0.51046875 2.140625 0.7734375 C8.330728 3.42982028 13.42105429 8.13956173 18 13 C18 13.66 18 14.32 18 15 C16.42578125 16.55078125 16.42578125 16.55078125 14.3125 18.3125 C11.78767731 20.43655718 9.44737434 22.54086947 7.25 25 C6.5075 25.66 5.765 26.32 5 27 C1.67296431 26.6591152 -0.22580664 25.22154077 -2.75 23.125 C-11.19685607 16.70106559 -19.41729264 15.6933596 -30 17 C-38.81440021 19.77227103 -45.54582828 24.78505907 -50.05078125 32.890625 C-54.05047966 41.61034664 -54.14292275 51.11422625 -51.375 60.1875 C-47.67916405 70.10722635 -42.4581211 75.295358 -33 80 C-24.78701887 82.73766038 -15.03387151 82.0579414 -7.3125 78.3125 C-3.2501247 75.98561564 0.02562847 73.61173686 3 70 C7.07376031 71.61010527 9.76507069 74.53822271 12.75 77.625 C13.25660156 78.140625 13.76320313 78.65625 14.28515625 79.1875 C15.52803902 80.45383339 16.76465276 81.7263144 18 83 C13.14380306 91.86255941 4.32681982 96.70497752 -5 100 C-11.07799828 101.17582522 -17.01521448 101.257878 -23.1875 101.3125 C-24.26064453 101.34150391 -25.33378906 101.37050781 -26.43945312 101.40039062 C-40.99886076 101.51489292 -53.21307507 95.2800235 -63.70703125 85.453125 C-74.5851148 73.81524345 -77.46998162 59.45606518 -77.2109375 44.00390625 C-76.70968613 30.86307557 -70.31206598 19.62328498 -61.41796875 10.22265625 C-45.61938148 -4.29979311 -19.78036862 -7.43379866 0 0 Z " fill="#FFFFFF" transform="translate(1255,1110)"/>
<path d="M0 0 C3.62621451 2.72836101 6.79034225 5.80306088 9.875 9.125 C8.27653531 13.37408336 5.0619608 15.94725739 1.75 18.875 C0.90501953 19.63490234 0.90501953 19.63490234 0.04296875 20.41015625 C-1.34151531 21.65384532 -2.73261488 22.89016305 -4.125 24.125 C-5.48625 22.7946875 -5.48625 22.7946875 -6.875 21.4375 C-14.56239065 14.93872196 -23.09525779 12.32039952 -33.0859375 12.7734375 C-41.02727816 13.69210159 -47.35473613 16.51852091 -53.125 22.125 C-60.20940895 31.13334743 -61.21088372 40.9801116 -60.125 52.125 C-58.36304174 60.78708222 -54.11637255 67.44569781 -47 72.69140625 C-39.18299262 77.73510035 -31.21475501 78.01411476 -22.125 77.125 C-18.77322042 76.23641008 -16.05613419 74.95617765 -13.125 73.125 C-12.53074219 72.77824219 -11.93648437 72.43148438 -11.32421875 72.07421875 C-8.49210406 70.32357984 -6.99812487 68.9346873 -5.125 66.125 C-1.5129725 67.69105388 1.13023483 69.89257957 4.0625 72.5 C5.38314453 73.65628906 5.38314453 73.65628906 6.73046875 74.8359375 C9.85099818 78.16677584 9.85099818 78.16677584 9.875 81.125 C4.38531526 89.44326806 -5.54055014 93.94665656 -14.8125 96.39453125 C-30.61471957 99.50720454 -46.95116098 98.16174558 -60.875 89.9375 C-72.14099948 82.15431313 -80.49421459 71.7796809 -83.828125 58.27734375 C-84.24929006 53.80523584 -84.34945138 49.36516909 -84.375 44.875 C-84.4059375 43.53888672 -84.4059375 43.53888672 -84.4375 42.17578125 C-84.50904177 29.85271128 -79.82117937 19.96800422 -72.9375 9.9375 C-54.6901613 -8.3098387 -22.69598422 -14.30261029 0 0 Z " fill="#FFFFFF" transform="translate(1519.125,1113.875)"/>
<path d="M0 0 C28.38 0 56.76 0 86 0 C86 5.94 86 11.88 86 18 C75.44 18 64.88 18 54 18 C54 46.05 54 74.1 54 103 C46.41 103 38.82 103 31 103 C31 75.28 31 47.56 31 19 C20.77 19 10.54 19 0 19 C0 12.73 0 6.46 0 0 Z " fill="#FFFFFF" transform="translate(2209,1108)"/>
<path d="M0 0 C7.33724631 5.19353278 12.8729812 12.90742015 14.59375 21.8359375 C15.3686111 32.83300463 14.41465733 42.31050967 7.25390625 51.01953125 C0.97172432 57.89297736 -4.58256254 61.26060065 -13.96484375 62.1875 C-24.37449956 62.58585541 -31.47053363 60.65003773 -39.21875 53.6484375 C-47.03077093 45.22696813 -48.9170199 35.78008981 -48.671875 24.66015625 C-47.96969117 14.55077431 -42.95480342 7.40748247 -35.40625 0.8359375 C-24.58774418 -6.67456966 -11.2494771 -6.44123286 0 0 Z " fill="#000000" transform="translate(2377.40625,1130.1640625)"/>
<path d="M0 0 C7.67124537 4.58106172 13.48513639 10.81536985 15.8203125 19.6171875 C17.45393276 30.9218397 17.15752319 42.22874717 10.4453125 51.8515625 C5.48809533 57.86267624 0.59215459 60.8599068 -6.7890625 63.3203125 C-16.57922894 64.09819179 -24.39818496 64.01946299 -32.7890625 58.3203125 C-33.6965625 57.7634375 -34.6040625 57.2065625 -35.5390625 56.6328125 C-43.60584501 48.3419527 -46.2040309 38.61700843 -46.15478516 27.31640625 C-46.00725121 21.458361 -44.93147859 17.2205176 -41.7890625 12.3203125 C-41.3765625 11.62550781 -40.9640625 10.93070313 -40.5390625 10.21484375 C-31.80029381 -3.01743952 -14.07868202 -6.68854328 0 0 Z " fill="#000000" transform="translate(892.7890625,1128.6796875)"/>
<path d="M0 0 C7.71842104 4.40453374 13.89870334 10.92751262 17.15625 19.23046875 C19.67927578 29.04223567 19.13354978 39.43660611 14.76953125 48.5703125 C9.81851394 56.7340965 3.06252475 61.2617105 -5.84375 64.23046875 C-16.66175765 65.00960503 -25.4105711 63.94685312 -33.9921875 57.0234375 C-41.45041491 49.80122994 -44.9091207 41.03252668 -45.28125 30.79296875 C-45.02620823 21.27880195 -41.50641527 13.06923971 -34.84375 6.23046875 C-24.72575755 -1.81387154 -12.50248636 -4.96833879 0 0 Z " fill="#000000" transform="translate(292.84375,1127.76953125)"/>
<path d="M0 0 C7.54199348 4.33867367 12.92267596 10.13098409 15.828125 18.4140625 C18.35451777 30.01784326 17.42623412 40.32766784 11.48828125 50.6328125 C8.86562091 54.41480207 6.44527808 57.13116496 2.5 59.5 C1.87996094 59.90734375 1.25992187 60.3146875 0.62109375 60.734375 C-6.50515464 64.68288454 -14.6272295 64.4248134 -22.5 63.5 C-26.22726693 62.30330135 -29.27124028 60.69299918 -32.5 58.5 C-33.4075 57.943125 -34.315 57.38625 -35.25 56.8125 C-43.1562784 48.68660275 -45.98378445 39.201985 -46.00415039 28.11572266 C-45.75586429 19.12525383 -42.17548015 12.09293699 -36.125 5.5 C-26.32233805 -3.43131423 -11.98987032 -5.59325177 0 0 Z " fill="#000000" transform="translate(1611.5,1128.5)"/>
<path d="M0 0 C36.765625 0 36.765625 0 46.27734375 9.0625 C54.58493612 18.40618666 54.75990948 27.63822395 54.22216797 39.64257812 C53.75864884 44.56097446 51.99388116 48.15072422 49 52 C48.27296875 52.97453125 48.27296875 52.97453125 47.53125 53.96875 C42.39998218 59.90492258 37.89131993 60.71195003 30 64 C20.1 64 10.2 64 0 64 C0 42.88 0 21.76 0 0 Z " fill="#000000" transform="translate(1697,1127)"/>
<path d="M0 0 C37.1247719 0 37.1247719 0 47.05078125 9.765625 C54.0068021 17.73926013 54.88933063 25.45288785 54.4140625 35.7109375 C53.77176188 43.96037396 50.71152475 50.2191021 45.06640625 56.2421875 C31.95712836 67.39374714 17.10353721 64 0 64 C0 42.88 0 21.76 0 0 Z " fill="#000000" transform="translate(2068,1127)"/>
<path d="M0 0 C7.26 0 14.52 0 22 0 C22 33.33 22 66.66 22 101 C14.74 101 7.48 101 0 101 C0 67.67 0 34.34 0 0 Z " fill="#FFFFFF" transform="translate(2168,1109)"/>
<path d="M0 0 C3.774375 -0.061875 7.54875 -0.12375 11.4375 -0.1875 C12.60853271 -0.21481201 13.77956543 -0.24212402 14.98608398 -0.27026367 C22.83957215 -0.33207076 29.96461708 0.43480174 36.375 5.3125 C40.30483653 9.33590406 42.13399604 12.7693604 42.5 18.375 C42.30848027 23.53732729 40.35267994 27.14092569 37 31 C31.77895249 35.07241706 28.11253914 36.12720606 21.58203125 36.09765625 C19.88784058 36.09390991 19.88784058 36.09390991 18.15942383 36.09008789 C16.00769653 36.07643188 16.00769653 36.07643188 13.8125 36.0625 C9.254375 36.041875 4.69625 36.02125 0 36 C0 24.12 0 12.24 0 0 Z " fill="#000000" transform="translate(1095,1126)"/>
<path d="M0 0 C6.8990625 -0.1546875 6.8990625 -0.1546875 13.9375 -0.3125 C15.36956787 -0.35802002 16.80163574 -0.40354004 18.27709961 -0.45043945 C25.99903475 -0.53392274 31.87844105 -0.00693984 38 5 C42.2766074 10.11106738 42.62960787 14.60196976 42.3828125 21.19140625 C41.85382255 25.07246516 40.6908031 27.16757569 38 30 C32.62323008 34.06000994 29.02502306 35.12674683 22.36328125 35.09765625 C20.60818237 35.09390991 20.60818237 35.09390991 18.81762695 35.09008789 C16.58758911 35.07643188 16.58758911 35.07643188 14.3125 35.0625 C9.589375 35.041875 4.86625 35.02125 0 35 C0 23.45 0 11.9 0 0 Z " fill="#000000" transform="translate(2460,1127)"/>
<path d="M0 0 C4.455 -0.103125 8.91 -0.20625 13.5 -0.3125 C15.58344727 -0.38078003 15.58344727 -0.38078003 17.70898438 -0.45043945 C25.11278163 -0.53321416 30.38076909 -0.09025294 36 5 C40.11850777 9.43531606 41.32279525 12.78265863 41.2109375 18.87890625 C40.71950048 23.82057854 38.80703789 27.56699237 35.125 30.8125 C30.19530441 34.26328691 26.61502252 35.25227509 20.60546875 35.1953125 C19.52160889 35.19031738 18.43774902 35.18532227 17.32104492 35.18017578 C15.9569751 35.16196777 14.59290527 35.14375977 13.1875 35.125 C8.835625 35.08375 4.48375 35.0425 0 35 C0 23.45 0 11.9 0 0 Z " fill="#000000" transform="translate(380,1127)"/>
</svg>
