<svg version="1.1" xmlns="http://www.w3.org/2000/svg" width="906" height="455" viewBox="207 559 906 455">
<path d="M0 0 C0.69881287 0.00093658 1.39762573 0.00187317 2.11761475 0.00283813 C22.94878604 0.0629309 42.6112224 1.91449597 62.8125 7.1875 C64.0603125 7.49558594 65.308125 7.80367187 66.59375 8.12109375 C90.60530929 14.43254333 114.27647248 25.88253727 133.8125 41.1875 C134.67359375 41.83976563 135.5346875 42.49203125 136.421875 43.1640625 C156.36962385 58.60133311 172.22816446 77.3660027 184.8125 99.1875 C185.46863281 100.32316406 186.12476563 101.45882812 186.80078125 102.62890625 C195.53304304 118.15410469 201.79980028 134.85368455 205.8125 152.1875 C206.04098633 153.12335938 206.26947266 154.05921875 206.50488281 155.0234375 C213.33279197 183.77641897 213.60597503 216.19161366 207.8125 245.1875 C207.64621094 246.05455566 207.47992187 246.92161133 207.30859375 247.81494141 C197.46356742 297.72375542 167.9399714 342.72082047 125.8125 371.1875 C79.67445954 401.83983578 21.64442054 414.45415752 -33.1875 405.1875 C-33.96528809 405.05859375 -34.74307617 404.9296875 -35.54443359 404.796875 C-86.1424727 396.14524116 -135.21564378 369.27604126 -165.95458984 327.39306641 C-184.73607614 300.8549868 -197.71614802 270.40168087 -202.1875 238.1875 C-202.33558105 237.15189941 -202.48366211 236.11629883 -202.63623047 235.04931641 C-206.34412468 208.4953657 -206.00755878 183.37776452 -200.1875 157.1875 C-199.90828907 155.83996072 -199.62965844 154.49230108 -199.3515625 153.14453125 C-193.17980422 124.1701427 -179.59170974 97.28540081 -161.1875 74.1875 C-160.77951172 73.67123047 -160.37152344 73.15496094 -159.95117188 72.62304688 C-137.5395194 44.46306217 -105.83970954 24.36553228 -72.1875 12.1875 C-71.50445801 11.93758301 -70.82141602 11.68766602 -70.11767578 11.43017578 C-47.56920912 3.3357228 -23.87847396 -0.04150619 0 0 Z " fill="#FFFFFF" transform="translate(880.1875,580.8125)"/>
<path d="M0 0 C1.85431641 0.29197266 1.85431641 0.29197266 3.74609375 0.58984375 C33.85563468 5.63296805 59.38262055 17.58993164 82 38 C82.79921875 38.71542969 83.5984375 39.43085937 84.421875 40.16796875 C108.60605295 63.0228745 121.52542941 97.34446688 127.25 129.4375 C127.40114258 130.28094971 127.55228516 131.12439941 127.70800781 131.9934082 C130.5916726 149.50857982 131.29838287 167.04297351 131.2746582 184.75952148 C131.27901884 186.94990205 131.28420642 189.1402811 131.29014587 191.33065796 C131.30338699 197.20774657 131.30413248 203.08477032 131.30158257 208.96187091 C131.30050484 213.88331422 131.30541544 218.80474482 131.310188 223.72618538 C131.32122677 235.32763935 131.32174939 246.92906091 131.31567383 258.53051758 C131.30960819 270.48864009 131.32202331 282.44662962 131.3432439 294.40472931 C131.36084254 304.7015595 131.36686488 314.99835239 131.36360615 325.29519707 C131.36179388 331.43309701 131.36442612 337.5709131 131.37832069 343.70879936 C131.39086966 349.46525953 131.38898278 355.22153576 131.37590981 360.97799301 C131.37353989 363.08955382 131.37629352 365.2011275 131.38453293 367.31267357 C131.39496449 370.19327786 131.38692917 373.07326043 131.3742218 375.95384216 C131.38159609 376.78972207 131.38897037 377.62560198 131.39656812 378.48681158 C131.35094563 383.39812614 130.69428865 386.7340962 128 391 C122.76540593 395.96615335 118.80507252 396.12384599 111.75634766 396.17700195 C111.03388351 396.18357315 110.31141937 396.19014435 109.56706238 396.19691467 C107.18272793 396.21658163 104.7984562 396.22829403 102.4140625 396.23828125 C101.18963503 396.24439454 101.18963503 396.24439454 99.94047165 396.25063133 C95.62177537 396.27146158 91.30311059 396.28577775 86.984375 396.29516602 C82.52999065 396.30623824 78.07610476 396.34065587 73.62189674 396.38033772 C70.19030847 396.40650537 66.75883915 396.41485784 63.32715988 396.41844749 C61.68534342 396.42331124 60.04353219 396.43491927 58.40181351 396.45348549 C56.10162197 396.47788655 53.80272328 396.47691113 51.50244141 396.4699707 C49.54197372 396.47877007 49.54197372 396.47877007 47.54190063 396.48774719 C42.57493915 395.80375807 39.46698195 393.66932428 36.1875 389.9375 C33.6415489 385.78357978 33.85796196 381.77833015 33.86869812 377.07629395 C33.86552455 375.85145743 33.86552455 375.85145743 33.86228687 374.60187674 C33.85627746 371.85501386 33.85728776 369.1081968 33.8581543 366.36132812 C33.85512294 364.39486615 33.85160155 362.42840487 33.84762573 360.46194458 C33.83972663 356.21733013 33.83458765 351.97272413 33.83133507 347.72810364 C33.8254154 340.99103238 33.80885979 334.25401372 33.78999329 327.51696777 C33.78365494 325.20661167 33.77732932 322.89625553 33.77101612 320.58589935 C33.76785031 319.42833476 33.7646845 318.27077017 33.76142275 317.07812786 C33.71946013 301.3955195 33.68645515 285.71293409 33.67407227 270.03027344 C33.66563539 259.4538182 33.64292903 248.87749192 33.6047166 238.30110121 C33.58512387 232.71501029 33.57249424 227.12911142 33.57755089 221.54298401 C34.30721061 163.10853387 34.30721061 163.10853387 9 112 C8.23300781 111.02417969 7.46601563 110.04835938 6.67578125 109.04296875 C-4.66149237 95.44931987 -24.11131792 89.45033811 -41 87 C-57.14820041 86.1224462 -73.55417929 85.75394312 -89 91 C-90.0206958 91.32943604 -90.0206958 91.32943604 -91.06201172 91.66552734 C-115.33157944 99.55802428 -132.13246579 116.14797736 -143.8828125 138.53515625 C-155.82938607 162.22706432 -157.15080608 187.89220089 -157.1418457 213.92553711 C-157.14488529 215.77681561 -157.14840891 217.62809337 -157.15237427 219.47937012 C-157.16019745 223.43406695 -157.16538279 227.38875503 -157.16866493 231.34345818 C-157.17462474 237.60160393 -157.19120731 243.85969434 -157.21000671 250.11781311 C-157.21634183 252.26798532 -157.22266748 254.41815755 -157.22898388 256.56832981 C-157.23214969 257.64414503 -157.2353155 258.71996025 -157.23857725 259.82837594 C-157.28053934 274.37589045 -157.31367091 288.9233761 -157.32592773 303.47094727 C-157.33430832 313.31740798 -157.35678606 323.16372815 -157.3952834 333.01011854 C-157.41501864 338.21033874 -157.42745636 343.41034901 -157.42244911 348.61060905 C-157.41780273 353.49378822 -157.43160755 358.37656783 -157.45946121 363.25966644 C-157.46636897 365.04785666 -157.46650402 366.83608823 -157.45926094 368.62427711 C-157.4503518 371.07123419 -157.46609733 373.51687901 -157.48774719 375.96372986 C-157.47508339 377.01651191 -157.47508339 377.01651191 -157.46216375 378.09056228 C-157.54868282 383.40301716 -159.01016007 387.65810761 -162 392 C-166.52755963 395.84441497 -170.73414161 396.50322018 -176.66015625 396.51757812 C-177.39120575 396.5245874 -178.12225525 396.53159668 -178.87545776 396.53881836 C-181.27153472 396.55630132 -183.66641283 396.5448113 -186.0625 396.53125 C-187.739667 396.53394773 -189.41683247 396.53783249 -191.09399414 396.54284668 C-194.60090088 396.54872856 -198.10739878 396.54022142 -201.61425781 396.52148438 C-206.09658862 396.49869528 -210.57796125 396.51182545 -215.06025696 396.53577423 C-218.52110947 396.55026791 -221.98173694 396.54560996 -225.44259644 396.53526306 C-227.09471756 396.53260562 -228.7468595 396.53583079 -230.3989563 396.54518127 C-232.71313142 396.55540641 -235.02578146 396.53976527 -237.33984375 396.51757812 C-238.65331787 396.51439575 -239.96679199 396.51121338 -241.32006836 396.50793457 C-245.76853918 395.89391987 -248.56443595 394.86135808 -252 392 C-256.90950284 384.72060969 -256.56419311 377.61722884 -256.50793457 369.07640076 C-256.51254701 367.55242777 -256.51890224 366.02845924 -256.52684355 364.50449997 C-256.54351281 360.32878657 -256.53530157 356.15343972 -256.52289867 351.97772515 C-256.51384071 347.46982559 -256.52782156 342.96198864 -256.53881836 338.45410156 C-256.55659976 329.62819709 -256.55276541 320.80242872 -256.5411678 311.97651892 C-256.53213284 304.80379832 -256.53090975 297.63111585 -256.53526306 290.45839119 C-256.53587599 289.43738787 -256.53648893 288.41638455 -256.53712043 287.36444174 C-256.53839934 285.29028112 -256.53969619 283.21612051 -256.5410108 281.14195991 C-256.55241534 261.69541717 -256.53930456 242.24894986 -256.51780933 222.80241949 C-256.49993579 206.11571911 -256.50304483 189.42913002 -256.52148438 172.74243164 C-256.54288867 153.36374153 -256.55131954 133.98511752 -256.53903532 114.60641724 C-256.53776112 112.54020918 -256.53650364 110.47400112 -256.53526306 108.40779305 C-256.53464596 107.39118124 -256.53402886 106.37456944 -256.53339306 105.32715122 C-256.52993904 98.16237929 -256.53576957 90.99764928 -256.54518127 83.83288383 C-256.55639761 75.10245281 -256.55336877 66.37216564 -256.5320583 57.6417511 C-256.52154339 53.18718663 -256.51743359 48.73286205 -256.53065491 44.27829933 C-256.54257538 40.20036891 -256.53602219 36.12290074 -256.5147447 32.04501224 C-256.51027718 30.57004028 -256.51254833 29.09502926 -256.52224785 27.62008243 C-256.60580725 13.85787382 -256.60580725 13.85787382 -252 8 C-247.60424062 4.21810513 -244.46096561 3.49687214 -238.72875977 3.48242188 C-238.027117 3.4754126 -237.32547424 3.46840332 -236.60256958 3.46118164 C-234.29843788 3.44367182 -231.995549 3.45519937 -229.69140625 3.46875 C-228.08007066 3.46605273 -226.46873666 3.46216836 -224.85740662 3.45715332 C-221.4857529 3.45126755 -218.1145241 3.45978994 -214.74291992 3.47851562 C-210.4343021 3.50128673 -206.12668205 3.48818864 -201.81810093 3.46422577 C-198.49192374 3.44972687 -195.16598055 3.4543927 -191.83979607 3.46473694 C-190.25186989 3.46739391 -188.66392205 3.4641709 -187.07602119 3.45481873 C-184.85032557 3.4445869 -182.62621334 3.46024416 -180.40063477 3.48242188 C-179.13743912 3.48560425 -177.87424347 3.48878662 -176.57276917 3.49206543 C-172.07922633 4.13090484 -169.74432178 5.4550047 -166 8 C-163.23366068 12.14718853 -162.56627828 15.69579537 -162.26953125 20.62109375 C-162.18896484 21.88759766 -162.10839844 23.15410156 -162.02539062 24.45898438 C-161.95513672 25.77189453 -161.88488281 27.08480469 -161.8125 28.4375 C-161.73064453 29.71560547 -161.64878906 30.99371094 -161.56445312 32.31054688 C-161.0297467 41.22082281 -160.90678907 50.07804065 -161 59 C-160.34 59 -159.68 59 -159 59 C-158.7436377 58.42056641 -158.48727539 57.84113281 -158.22314453 57.24414062 C-144.75986196 32.54264494 -108.88337951 13.97444613 -83.14453125 5.72265625 C-79.77816602 4.73254883 -76.40654985 3.84036428 -73 3 C-71.95972656 2.72542969 -70.91945313 2.45085938 -69.84765625 2.16796875 C-47.47865541 -3.4450191 -22.67089791 -4.21599154 0 0 Z " fill="#FFFFFF" transform="translate(484,584)"/>
<path d="M0 0 C7.39222905 6.93720533 9.07534046 19.42120308 11 29 C11.17063965 29.69335449 11.3412793 30.38670898 11.51708984 31.10107422 C13.26543919 38.64928111 13.29651342 46.02877228 13.25 53.75 C13.25773438 55.0184375 13.26546875 56.286875 13.2734375 57.59375 C13.20649593 90.39512086 2.22882523 122.55839164 -21 146 C-21.62777344 146.67675781 -22.25554687 147.35351562 -22.90234375 148.05078125 C-27.39779706 152.82125053 -32.52202646 156.43064167 -38 160 C-38.78246094 160.515625 -39.56492187 161.03125 -40.37109375 161.5625 C-64.40040309 176.71398569 -95.29140769 181.0283006 -122.96484375 175.04296875 C-133.25985992 172.52618664 -144.7312018 168.77828522 -153 162 C-153.7002206 160.68397821 -154.37168497 159.3518293 -155 158 C-154.06728271 157.07251953 -153.13456543 156.14503906 -152.17358398 155.18945312 C-148.68400607 151.71809851 -145.19783964 148.24333449 -141.71264648 144.76757812 C-140.20933045 143.26926293 -138.70511464 141.77184993 -137.19995117 140.27539062 C-135.0254053 138.11309775 -132.8542129 135.94748387 -130.68359375 133.78125 C-130.01976181 133.12257935 -129.35592987 132.46390869 -128.67198181 131.78527832 C-124.85377072 127.96751775 -121.25044193 124.03158703 -117.72206116 119.94567871 C-114.94640508 116.80959094 -111.98090015 113.87704337 -109 110.9375 C-108.0409375 109.98411743 -108.0409375 109.98411743 -107.0625 109.01147461 C-104.36581517 106.33091985 -101.6631227 103.65645336 -98.9609375 100.98144531 C-96.97183897 99.01058659 -94.98587103 97.03660995 -93 95.0625 C-92.401875 94.47267334 -91.80375 93.88284668 -91.1875 93.27514648 C-88.18449892 90.28932217 -85.30856825 87.2472198 -82.54101562 84.04101562 C-78.98765794 79.9304527 -75.20848634 76.09766834 -71.34375 72.28125 C-70.2848053 71.22798523 -70.2848053 71.22798523 -69.20446777 70.15344238 C-66.22102625 67.18616234 -63.2315929 64.22494637 -60.24267578 61.26318359 C-58.04509421 59.08381535 -55.85062062 56.90135053 -53.65625 54.71875 C-52.99250366 54.063302 -52.32875732 53.407854 -51.64489746 52.73254395 C-48.50878734 49.61268208 -45.48362901 46.45295859 -42.59741211 43.09960938 C-38.54590247 38.40674766 -34.18116188 34.05573272 -29.78515625 29.6875 C-28.92941513 28.83317383 -28.07367401 27.97884766 -27.19200134 27.09863281 C-24.48452619 24.39671138 -21.77357746 21.69830641 -19.0625 19 C-17.21526325 17.15778423 -15.36825573 15.31533857 -13.52148438 13.47265625 C-9.01696997 8.97910939 -4.50960595 4.4884368 0 0 Z " fill="#000000" transform="translate(982,728)"/>
<path d="M0 0 C2.09123944 -0.00961489 4.18145501 -0.04065854 6.27246094 -0.07226562 C25.03360735 -0.22023424 41.37663084 4.76530202 57.62402344 14.24023438 C53.09713729 20.74841113 47.86575444 26.26664691 42.24145508 31.83398438 C41.31548019 32.75864502 40.38950531 33.68330566 39.43547058 34.63598633 C37.43481991 36.6337229 35.43107744 38.62828452 33.42479134 40.62036133 C30.24578606 43.77692671 27.07404314 46.94072447 23.90318298 50.10546875 C18.88291138 55.1143947 13.85798637 60.11862185 8.83097309 65.12078094 C-0.16290587 74.07026104 -9.15120732 83.0253339 -18.13421541 91.9857254 C-21.28076845 95.12392502 -24.43010645 98.25929383 -27.58179653 101.39233398 C-29.07303917 102.87544794 -30.56311929 104.35971861 -32.05271912 105.84448242 C-33.85965217 107.64544274 -35.66839679 109.44458831 -37.47940063 111.24145508 C-41.77193424 115.52594377 -45.89266468 119.88477676 -49.84658337 124.48345947 C-51.9039737 126.8467312 -54.08319998 129.06726736 -56.30151367 131.27929688 C-57.20191879 132.17962646 -58.10232391 133.07995605 -59.03001404 134.00756836 C-59.98772802 134.96017877 -60.94549804 135.91273285 -61.90332031 136.86523438 C-62.90244685 137.86249114 -63.90134936 138.8599724 -64.90003967 139.85766602 C-67.50344606 142.45729117 -70.10984326 145.05389669 -72.71691895 147.64984131 C-75.3870193 150.30963201 -78.05421934 152.97232778 -80.72167969 155.63476562 C-85.93697694 160.83940325 -91.15544372 166.04084778 -96.37597656 171.24023438 C-111.13070326 152.26660972 -109.23264753 119.65461848 -107.06689453 97.00830078 C-103.09812055 67.50353278 -86.87324088 38.54882834 -63.37597656 20.24023438 C-44.51302296 6.76669609 -23.04103452 0.0637373 0 0 Z " fill="#000000" transform="translate(879.3759765625,664.759765625)"/>
</svg>