<?xml version="1.0" standalone="no"?>
<!DOCTYPE svg PUBLIC "-//W3C//DTD SVG 20010904//EN"
 "http://www.w3.org/TR/2001/REC-SVG-20010904/DTD/svg10.dtd">
<svg version="1.0" xmlns="http://www.w3.org/2000/svg"
 width="2752.000000pt" height="1536.000000pt" viewBox="0 0 2752.000000 1536.000000"
 preserveAspectRatio="xMidYMid meet">

<g transform="translate(0.000000,1536.000000) scale(0.100000,-0.100000)"
fill="#000000" stroke="none">
<path d="M0 7680 l0 -7680 13760 0 13760 0 0 7680 0 7680 -13760 0 -13760 0 0
-7680z m16174 4741 c357 -72 648 -230 906 -491 266 -268 430 -601 495 -1000
55 -340 17 -621 -140 -1050 -29 -80 -137 -377 -240 -660 -103 -283 -193 -530
-201 -549 -12 -30 -12 -36 5 -60 10 -14 39 -68 65 -118 152 -305 229 -631 228
-978 0 -582 -207 -1087 -598 -1465 -411 -396 -953 -591 -1572 -566 -466 18
-843 150 -1201 419 -402 302 -669 767 -746 1297 -57 398 -4 811 149 1165 155
359 411 660 726 856 378 234 812 344 1280 325 369 -14 680 -98 961 -257 39
-23 75 -37 79 -32 4 4 19 44 35 88 15 44 92 258 170 475 236 652 263 778 220
1009 -87 455 -420 774 -861 823 -278 31 -553 -64 -754 -262 -139 -136 -214
-267 -302 -522 l-43 -127 -45 -7 c-135 -18 -240 -60 -315 -126 -51 -45 -105
-121 -105 -148 0 -11 46 -34 158 -79 86 -35 158 -65 160 -66 2 -2 -16 -59 -39
-127 -48 -135 -72 -168 -123 -168 -41 1 -602 193 -635 218 -14 10 -30 33 -35
50 -10 35 -16 15 134 427 56 154 129 359 161 455 67 198 150 375 234 500 281
419 707 690 1199 765 140 21 451 14 590 -14z m-3724 -1393 c27 -14 50 -36 62
-58 17 -33 18 -139 18 -2665 0 -2484 -1 -2632 -18 -2664 -9 -19 -30 -44 -45
-55 -27 -20 -42 -21 -403 -24 -353 -3 -377 -2 -418 17 -29 12 -51 31 -63 53
-17 32 -18 138 -20 2593 -1 1408 0 2597 3 2642 7 95 28 137 84 165 31 16 72
18 395 18 354 0 362 0 405 -22z m10197 -4 c15 -12 37 -36 48 -55 20 -34 20
-52 20 -1567 0 -842 3 -1532 6 -1532 4 0 182 213 397 473 766 926 889 1072
931 1102 l43 30 451 3 c474 3 492 1 522 -42 21 -29 18 -85 -5 -123 -11 -18
-210 -259 -443 -535 -345 -411 -866 -1036 -925 -1110 -15 -19 2 -42 674 -913
663 -860 789 -1027 798 -1055 12 -41 -3 -89 -37 -114 -28 -21 -39 -21 -489
-24 l-460 -3 -52 24 c-28 13 -66 38 -84 57 -18 18 -162 204 -319 414 -455 605
-974 1289 -994 1311 -19 19 -19 0 -19 -841 l0 -861 -23 -34 c-45 -68 -50 -69
-454 -69 -232 0 -372 4 -390 11 -36 13 -72 47 -85 79 -6 16 -10 942 -10 2657
0 2556 0 2634 19 2665 10 19 38 43 63 56 45 23 47 23 417 20 360 -3 372 -4
400 -24z m-13460 -1498 c499 -74 954 -317 1249 -668 247 -295 396 -633 455
-1032 24 -162 28 -418 10 -561 -66 -508 -298 -966 -643 -1265 -314 -272 -662
-432 -1088 -496 -161 -25 -521 -25 -680 -1 -605 94 -1126 423 -1421 897 -188
303 -280 596 -310 986 -23 294 34 648 148 929 102 251 249 475 427 649 332
322 787 530 1266 576 129 12 462 4 587 -14z m10799 14 c362 -29 647 -121 901
-292 103 -69 251 -194 274 -231 21 -35 25 -97 8 -129 -6 -11 -101 -133 -211
-270 -213 -266 -235 -286 -303 -274 -20 4 -59 30 -101 68 -136 120 -289 202
-469 249 -79 21 -112 24 -270 24 -194 -1 -264 -13 -415 -72 -317 -124 -538
-407 -622 -795 -18 -86 -22 -136 -22 -298 -1 -169 2 -209 22 -299 57 -255 170
-463 334 -616 306 -287 782 -361 1164 -181 110 52 200 112 274 182 30 28 65
56 77 63 35 18 88 13 118 -11 25 -20 329 -377 398 -468 37 -49 46 -109 21
-148 -55 -85 -301 -265 -488 -356 -326 -161 -660 -223 -1054 -197 -426 29
-750 151 -1097 414 -149 114 -330 316 -438 488 -202 324 -307 749 -294 1184
11 360 75 622 226 924 287 571 859 960 1516 1030 204 22 284 24 451 11z
m-15129 -25 c329 -51 602 -184 819 -400 247 -246 392 -582 455 -1050 9 -64 13
-423 16 -1245 l4 -1155 -23 -35 c-46 -69 -50 -70 -463 -70 -407 0 -414 1 -459
63 -21 28 -21 37 -27 1075 -5 934 -7 1058 -23 1152 -43 262 -104 412 -225 558
-77 93 -240 191 -378 226 -234 61 -530 28 -758 -83 -264 -129 -441 -400 -512
-786 -15 -79 -18 -216 -22 -1095 -7 -1134 0 -1053 -84 -1091 -39 -17 -70 -19
-407 -19 -340 0 -368 2 -408 20 -33 15 -47 29 -62 62 -19 42 -20 82 -20 1878
0 1788 1 1836 20 1877 11 25 33 51 52 63 31 19 50 20 397 20 347 0 365 -1 396
-20 53 -33 63 -73 76 -311 7 -118 13 -215 14 -217 1 -1 44 41 96 94 297 305
627 462 1064 508 78 8 361 -4 462 -19z m2942 -5230 c70 -7 231 -61 231 -77 0
-6 -14 -48 -31 -93 l-32 -83 -51 24 c-109 49 -242 67 -327 44 -38 -11 -83 -52
-93 -86 -10 -32 10 -72 45 -93 17 -10 88 -33 158 -51 225 -56 312 -104 357
-196 24 -48 26 -63 22 -132 -6 -94 -29 -143 -94 -200 -134 -119 -427 -134
-639 -33 -105 50 -103 46 -65 132 19 41 37 78 40 82 4 4 38 -8 76 -27 116 -59
270 -82 365 -56 50 14 89 55 89 94 0 66 -49 100 -195 135 -194 47 -279 84
-334 146 -42 48 -54 95 -49 186 5 92 37 153 105 205 76 58 228 99 328 88 17
-2 59 -6 94 -9z m-4836 -15 c97 -24 157 -59 227 -130 197 -199 201 -535 10
-734 -107 -112 -227 -160 -400 -159 -279 2 -482 158 -536 413 -58 275 109 550
372 614 88 21 236 20 327 -4z m5959 9 c199 -41 364 -216 398 -422 46 -268
-112 -516 -375 -593 -124 -35 -310 -17 -435 43 -119 57 -230 204 -259 341 -61
291 100 560 376 626 71 17 223 20 295 5z m3563 -4 c85 -22 139 -51 197 -104
l50 -46 -73 -72 -73 -71 -38 33 c-119 108 -300 114 -421 14 -115 -95 -148
-274 -76 -418 54 -109 138 -162 265 -169 73 -4 88 -1 140 22 33 15 76 44 97
64 l37 36 73 -72 72 -73 -50 -45 c-59 -54 -139 -96 -214 -114 -72 -17 -232
-15 -304 4 -234 63 -387 263 -387 506 0 239 147 434 375 501 78 23 249 25 330
4z m2560 0 c88 -23 154 -58 205 -110 l45 -45 -75 -69 -75 -68 -47 42 c-149
134 -400 83 -488 -100 -35 -74 -40 -199 -10 -280 30 -80 114 -165 189 -190
111 -37 244 -8 325 71 l36 35 48 -39 c26 -22 60 -53 75 -69 l28 -30 -48 -45
c-100 -93 -196 -128 -354 -130 -166 -1 -285 42 -393 142 -108 101 -156 219
-156 380 0 59 6 118 16 151 52 176 190 312 360 353 80 19 245 20 319 1z m1080
0 c97 -25 164 -64 235 -134 103 -104 150 -223 150 -381 0 -150 -50 -268 -156
-370 -178 -171 -480 -196 -697 -57 -105 67 -190 192 -216 315 -60 287 98 553
371 626 72 20 239 20 313 1z m7634 0 c255 -60 424 -323 383 -592 -30 -194
-155 -344 -343 -410 -64 -23 -90 -26 -189 -26 -98 0 -127 4 -194 27 -225 77
-356 259 -356 496 0 241 145 434 375 501 76 22 237 24 324 4z m-19570 -19
c105 -34 173 -94 217 -191 23 -50 28 -74 28 -145 1 -110 -23 -176 -87 -246
-87 -96 -182 -124 -419 -124 l-138 0 0 -145 0 -145 -110 0 -110 0 0 511 0 511
283 -4 c233 -4 291 -8 336 -22z m1221 -66 l0 -90 -265 0 -265 0 0 -115 0 -115
235 0 235 0 0 -90 0 -90 -235 0 -235 0 0 -125 0 -125 275 0 275 0 0 -90 0 -90
-390 0 -390 0 0 503 c0 277 3 507 7 510 3 4 174 7 380 7 l373 0 0 -90z m549
-42 c58 -73 168 -213 245 -312 l141 -180 3 312 2 312 115 0 115 0 0 -510 0
-510 -98 0 -99 0 -242 305 c-134 168 -247 305 -251 305 -5 0 -7 -111 -6 -247
1 -137 0 -274 -2 -305 l-4 -58 -109 0 -109 0 0 510 0 510 98 0 97 0 104 -132z
m3811 -181 c0 -258 3 -323 16 -368 32 -109 98 -158 212 -159 72 0 116 16 154
56 60 65 63 78 68 444 l5 335 113 3 112 3 0 -334 c0 -358 -4 -397 -54 -496
-33 -65 -122 -144 -194 -172 -71 -28 -255 -38 -342 -19 -75 16 -163 64 -206
113 -48 52 -91 147 -103 227 -6 36 -11 203 -11 373 l0 307 115 0 115 0 0 -313z
m1531 299 c92 -20 158 -56 212 -116 60 -67 82 -131 82 -241 0 -79 -3 -92 -35
-155 -28 -56 -47 -78 -97 -114 -34 -25 -62 -48 -62 -53 -1 -4 43 -74 97 -155
54 -81 102 -153 106 -159 6 -10 -20 -13 -117 -13 l-123 0 -93 145 -93 145
-114 0 -114 0 0 -145 0 -145 -115 0 -115 0 0 503 c0 277 3 507 7 510 13 14
505 7 574 -7z m2390 10 c2 -2 3 -43 1 -90 l-3 -86 -260 0 -259 0 0 -115 0
-115 235 0 235 0 0 -90 0 -90 -235 0 -235 0 0 -125 0 -125 276 0 275 0 -2 -90
-3 -90 -388 0 -388 0 0 510 0 510 373 0 c206 0 376 -2 378 -4z m3688 -19 c177
-52 311 -189 350 -357 15 -67 13 -208 -4 -275 -46 -175 -184 -307 -367 -350
-48 -11 -131 -15 -340 -15 l-278 0 0 511 0 511 293 -5 c225 -3 304 -8 346 -20z
m1341 -67 l0 -90 -260 0 -260 0 0 -115 0 -115 230 0 230 0 0 -90 0 -90 -230 0
-230 0 0 -125 0 -125 275 0 275 0 0 -67 c0 -38 -3 -78 -6 -90 l-6 -23 -384 0
-384 0 0 510 0 510 375 0 375 0 0 -90z m1480 0 l0 -90 -265 0 -265 0 0 -115 0
-115 233 0 232 0 -2 -87 -2 -88 -230 -3 -231 -2 0 -125 0 -125 275 0 275 0 0
-90 0 -90 -390 0 -390 0 0 510 0 510 380 0 380 0 0 -90z m844 75 c157 -28 290
-125 356 -259 139 -283 16 -602 -276 -714 -68 -26 -74 -26 -366 -30 l-298 -4
0 511 0 511 253 0 c171 -1 277 -5 331 -15z m856 -495 l0 -510 -112 0 -113 0 1
503 c0 276 1 505 2 510 1 4 52 7 112 7 l110 0 0 -510z m1050 415 l0 -95 -160
0 -160 0 0 -415 0 -415 -115 0 -115 0 0 415 0 415 -155 0 -155 0 0 95 0 95
430 0 430 0 0 -95z m2062 67 c84 -28 165 -99 204 -179 52 -106 43 -256 -22
-355 -22 -35 -108 -111 -135 -120 -6 -2 36 -76 95 -165 58 -89 106 -165 106
-168 0 -3 -54 -5 -120 -5 l-121 0 -95 145 -95 145 -115 0 -114 0 0 -145 0
-145 -110 0 -110 0 0 511 0 511 283 -4 c257 -4 288 -6 349 -26z"/>
<path d="M15035 8700 c-76 -12 -205 -52 -290 -90 -307 -138 -538 -454 -606
-830 -22 -117 -19 -453 5 -560 94 -433 348 -730 731 -853 195 -64 461 -71 646
-18 411 118 683 422 781 874 29 135 32 425 5 559 -20 99 -76 267 -114 342
-137 271 -380 470 -674 552 -80 22 -119 26 -259 29 -91 2 -192 0 -225 -5z"/>
<path d="M8613 8695 c-153 -28 -341 -108 -453 -193 -164 -124 -301 -323 -375
-544 -52 -157 -68 -278 -62 -483 6 -200 26 -304 83 -440 l16 -39 737 745 c405
409 754 763 775 786 l37 42 -44 26 c-64 37 -200 85 -287 101 -94 17 -332 16
-427 -1z"/>
<path d="M9403 7652 c-818 -834 -1128 -1154 -1130 -1166 -4 -14 84 -65 170
-100 266 -106 610 -95 870 28 229 109 415 301 517 534 144 326 158 708 40
1034 -18 49 -35 90 -40 93 -4 3 -196 -187 -427 -423z"/>
<path d="M2692 4081 c-69 -24 -119 -65 -159 -131 -132 -217 1 -490 246 -508
127 -9 237 54 299 173 24 44 27 61 27 150 0 126 -23 183 -101 254 -87 80 -197
102 -312 62z"/>
<path d="M8672 4082 c-74 -27 -120 -68 -161 -143 -35 -61 -36 -68 -36 -164 0
-87 3 -107 27 -157 53 -113 155 -178 282 -178 123 0 220 59 273 168 25 51 28
67 28 162 0 118 -15 165 -74 233 -74 84 -226 119 -339 79z"/>
<path d="M15895 4091 c-95 -25 -179 -102 -215 -197 -31 -83 -25 -206 13 -281
58 -114 138 -164 267 -171 81 -4 88 -2 150 30 119 62 176 171 168 322 -7 134
-61 221 -171 278 -46 23 -158 33 -212 19z"/>
<path d="M23520 4091 c-90 -29 -165 -96 -204 -180 -31 -68 -30 -215 3 -289 30
-66 113 -144 177 -166 60 -20 157 -21 216 0 170 57 255 282 175 458 -54 116
-143 178 -267 183 -41 1 -86 -1 -100 -6z"/>
<path d="M3790 3915 l0 -175 138 0 c154 0 197 12 244 69 49 57 46 162 -6 220
-43 49 -89 61 -238 61 l-138 0 0 -175z"/>
<path d="M10950 3915 l0 -175 138 0 c123 0 143 2 182 23 81 40 118 134 85 212
-39 95 -85 114 -267 115 l-138 0 0 -175z"/>
<path d="M16970 3770 l0 -322 163 4 c153 3 165 5 213 30 107 56 167 160 167
288 0 131 -61 233 -171 287 -54 26 -66 28 -214 31 l-158 4 0 -322z"/>
<path d="M20680 3771 l0 -321 145 0 c121 0 153 3 199 20 122 46 198 158 199
294 1 136 -58 238 -171 293 -54 26 -66 28 -214 31 l-158 4 0 -321z"/>
<path d="M24600 3915 l0 -175 143 0 c128 0 147 2 187 23 61 31 83 65 88 137 4
48 0 66 -18 97 -45 76 -87 91 -262 92 l-138 1 0 -175z"/>
</g>
</svg>
